<svg xmlns="http://www.w3.org/2000/svg" viewBox="0 0 935.91 982.53"><defs><style>.cls-1{fill:#231f20;}</style></defs><title>shape-1</title><g id="Layer_2" data-name="Layer 2"><g id="Layer_1-2" data-name="Layer 1"><path class="cls-1" d="M327.66,18a171.66,171.66,0,0,1,19.23-6.79C397.28-3.18,452.07-.48,504,1.9c52.69,2.42,106.1,9.34,155.58,28.42,170,65.55,261.06,236.54,274.53,411.19,9.87,127.93-19.12,263.32-102.6,360.75C748.15,899.5,620.84,948.48,494.72,970.64c-66,11.6-134,16.86-200.1,5.82s-130.71-39.39-177.33-87.59-72.63-113-86.37-178.66S14.7,577.25,8.75,510.48c-5.9-66.1-15.33-133.94-1.87-199.74,12.75-62.32,53-114.54,100.92-154.91C157.54,114,214.91,81.8,270.8,49,290,37.73,307.74,26.38,327.66,18Z"/></g></g></svg>