<svg xmlns="http://www.w3.org/2000/svg" viewBox="0 0 144 137.91"><defs><style>.cls-1{fill:#DF6C58;fill-rule:evenodd;}</style></defs><title>fg-circle-blk</title><g id="Layer_2" data-name="Layer 2"><g id="logos"><path class="cls-1" d="M43,137.91q-1.91-.84-3.77-1.8a13.72,13.72,0,0,1,.06-6.74c.1.28,0,.79.34.8a7.69,7.69,0,0,1,.23-2.62,4,4,0,0,0,.57,1.6,3,3,0,0,1,.23-2.17,2.33,2.33,0,0,0,1.48,1.6,3.27,3.27,0,0,1-.11-1.25c.32,0,.14.54.57.46-.1-.44-.34-.72-.46-1.14.43-.41.92-1.36,1.37-1.37.18.88-.47,2-.57,2.51a.12.12,0,0,1,.23,0,12.93,12.93,0,0,1-1.71,4.79c.41.1.62-.58.8-.34-.15.53-.2,1.17-.57,1.48.56,0,.63.29.46.8.58-.1.58-.79,1-1,0,.21-.29.76,0,.91,0-.14.33-.39.34-.11C43.31,135.45,43.21,136.7,43,137.91Zm-1.09-15.27c0,1.34-.26,2.62.23,3.65.76-1.37,2.1-2.77,1.71-4.9-.15.3,0,.88-.34,1,.44-2.64,0-4.85-.33-7.32,0,.18-.24.37-.24.14a11.39,11.39,0,0,0,0-3.53,22.35,22.35,0,0,0-.23,8.44c-.28-.29-.19-.95-.57-1.14C41.74,120,42.6,123.43,41.94,122.65Zm-19.39-.34c0-.17-.15,0-.34,0,.14-.21.54-1.38-.11-1a4.06,4.06,0,0,0,1-1.48c0-.29-.2.16-.46,0a4.35,4.35,0,0,0,1.48-3.08c-.06-.26-.18.14-.34-.11.15-.26.19-.65.34-.91-.45,0-.35.49-.8.46.63-.76.59-1.75,1.14-2.39,0-.17-.15,0-.34,0a11.89,11.89,0,0,0,1.25-3.31c-.17-.31-.48.2-.57.34a39,39,0,0,0,1.82-6.27c-.28-.17-.54.67-.8.91-.27-.28.17-.81.23-1.14-.13-.34-.1.42-.46.23v-.46c-.63.13-.9.62-1.71.57.71-1.31,1.41-2.62,2.05-4-.14-.21-.46.37-.68.46.09-1.07,2-1.89,1.6-3.42.76-.38.68-1.6,1-2.4-.42-.07-.57.72-.8.46.28-.91,1-1.9.46-3-.3,0-.09.44-.46.34.4-1-.11-2.37.34-3.42-.1-.27-.35.25-.34.46-.34-.24.15-.6,0-1s-.38,0-.34.11c0-1.16,1-2.63.34-4.45-.22.51-.25.21-.23-.34-.25.36-.32.9-.57,1.26.05-1.66.62-3.79.68-5.82-.12-.22-.45.3-.57.46-.27-.1.1-.5.11-.68-1,.39-1.21,1.52-2.28,1.82.13-.44.56-.58.68-1-.4-.09-1,.56-1.83.46.29-.39.52-.85.8-1.25-.32.07-.43-.06-1.14,0,2.1-1.25,3.16-3.53,4.45-5.59,0-.15-.29-.09-.46-.11a19.48,19.48,0,0,0,2.4-4.11c-.08-.29-.3.21-.57.11a14.33,14.33,0,0,0,2.17-3c-.43.09-.49-.19-1.14,0,.26-.56,1.34-.71,1.14-1.37,1.87-.64,2.52-2.5,3.76-3.76-.85-.09-1.28.25-2.05.23a14.75,14.75,0,0,0,6-4.22.64.64,0,0,1-.46.11.31.31,0,0,1,.34-.23c0-.25-.41-.05-.57-.11.05-.56.85-.36,1.14-.68-.66-.14-1.35-.24-2.05-.34,0-.61,1.52-.11,1.14-.8h.8c-.24-.52-1-.52-1.14-1.14.26.06.79-.18.46-.34a14,14,0,0,0,3.88-1.25c0-.4-.51-.33-.8-.46a14.75,14.75,0,0,0,5-1.6c-.2-.26-.87,0-1.26-.11,3.63-1,6.09-3.19,8.56-5.36a8,8,0,0,1-1.83-4.33c-.3,0-.09.44-.46.34A18,18,0,0,0,51.06,38c-.41-.11-.12.49-.34.57-.26-.6.34-1.56,0-2.28A7.51,7.51,0,0,0,50,37.78c-.24-1.21.22-3.21-.68-4.22-.15-.32-.24.36-.57.23A12.71,12.71,0,0,1,50.15,30c-.22-.17-.47.59-.8.68-.47-.18.22-.73.11-1.25-.16-.28-.55.57-.8.23a2.18,2.18,0,0,1,.46-.8c-.49-.5.06-2-.68-2.28a56.42,56.42,0,0,0,3.65-5.36c-.23-.33-.42.33-.8.23.44-.86,1.3-1.29,1.94-1.94a.94.94,0,0,0-.68-.23c1-.76,2.27-1.3,3-2.4-.65,0-.88.34-1.48.34,1.14-1.25,3.13-1.66,4.9-2.28,0-.13-.21-.1-.34-.11,1-.78,3-.61,4.68-.8-.08-.34-.66-.17-.8-.46,1.56-.53,3.6.38,5.13.34.21-.36-.92-.37-.91-.91,1.15,0,1.51.77,2.28,1.14A4.6,4.6,0,0,1,71,13.94c-.11.31-.58.26-.91.34,1.73.78,4.4.62,5.48,2.05A8.78,8.78,0,0,0,74,16c1.06.86,2.35,1.9,4.11,1.71a1.72,1.72,0,0,1-1.14.68c.86.71.92,1.65,1.94,2.28-.34.89,1.35,1.47,2.17,1.94-.11.45-.67.09-.91,0,.53,1,1.35,1.7,1.94,2.62-.17.31-.49-.18-.68-.23.18.62.53,1.06.68,1.71C85.77,25.64,87,33,83.91,33.91c.44,1.78,1.21,4,3.08,4.33a18.13,18.13,0,0,0,1.94.11c3.1.24,6.08,1.53,9,1.94-.16.26-.79,0-1.14.11,2.83,1.2,5.18,2.89,8.78,3.31v.34c1.55.39,2.46,1.42,4.22,1.6-.59.55,1.8,1.48,2.85,1.48.1.37-.38.16-.34.46a7.69,7.69,0,0,0,3.42,1.71c-.44,1,1.76,1,2.62,1.37-.1.35-.53.38-.91.46-.06.37.57.24.23.57h-1.48c.69.6,1.46,1.12,2.17,1.71a5.16,5.16,0,0,1-2.39-.8,5.72,5.72,0,0,0,3.65,2.62c-.12.26-.72,0-1,.11a25.63,25.63,0,0,0,3.08,2.28c-.43.2-1.24-.21-1.71-.34a45.06,45.06,0,0,0,3.76,5c0,.53-.17-.12-.46,0a8.89,8.89,0,0,0,4.56,4.22c0,.12-.23.08-.23.23A23.15,23.15,0,0,0,131,69c-.11.34-.69.23-1,.34.18.27.79.12.8.57a9.56,9.56,0,0,0-2.4,0c.27.45.95.5,1.25.91-.79.34-1.74-.16-2.51-.23-.26.34.57.57.57,1a3.8,3.8,0,0,1-.91-.46c.16.9.65,1.48.8,2.4-.19,0-.2-.11-.34-.11.38,2.4,1.52,4,2.17,6.16-.5-.3-.59-1-1.14-1.26a15.51,15.51,0,0,1,.46,1.6c-.18-.2-.52-.24-.57-.57a3.77,3.77,0,0,0,1.14,3.08c.15,1.59,1.69,2.7,2.62,3.88-.1.33-.37-.07-.57,0,.72.86,1,1.79,1.6,2.51.12.14,1.66,1.25,1.26,1.37-.6.17,1.23,1.23,1.6,1.82-.54.08-.78-.13-1.25-.11-.32.18.61.41.23.68-.5-.1-1,0-1.37-.46.2,1,.81,1.63,1,2.62-1-.48-1.34-1.62-2.05-2.4.18.73.75,1.07.91,1.83-.49-.38-1.06-.69-1.25-1.37a26.26,26.26,0,0,0,3.08,8.44c-.47-.07-1-1-1.37-1.6.59,1.84.95,4.3,1.64,6.42A72,72,0,1,0,21.67,123.46,2.75,2.75,0,0,0,22.55,122.3Zm95.13,5.13c-.35-.08-1,.51-1.37.8.38-1.15,2.21-1.82,2.28-3.65-.08-.15-.38.13-.46.11-.18-.49.34-1.25.57-1.71-.35-.83-.87-1.49-1.26-2.28a5.09,5.09,0,0,0-.34.91,4,4,0,0,1-.46-2.17c-.51.29-.42,1.17-1.14,1.25a6.91,6.91,0,0,0-.23-6.16c-.26,0,0,.61-.23.68-.41-.19-.34-.88-.34-1.48-.33.69-.12,1.93-.34,2.74a2.88,2.88,0,0,1-.57-1.71c-.56.16-.74.7-1.48.68-.36-.37,0-1,.11-1.48-.15-.46-.54.34-.57,0a16.07,16.07,0,0,0,.8-5.7c-.21-.31-.39.37-.68.34.12-1.3.92-2.71.34-4a.8.8,0,0,0-.23.34c-.27-.45,0-1.48-.34-1.83a6.55,6.55,0,0,0-.34,1.48c-.48-1.92-.36-4.43-.8-6.39a15.92,15.92,0,0,0-1,7.3,4.91,4.91,0,0,1-.68-3,5.79,5.79,0,0,0,.57,5c-.31.26-.5-.56-.68-.8a7.55,7.55,0,0,0,.46,3.31c0,.29-.08.14-.23.11a10.84,10.84,0,0,0,.8,3.31c-.23,0-.22-.31-.46-.34a6.83,6.83,0,0,1,.34,1.83,3.91,3.91,0,0,1-1.71-1.94c-.26.16,0,.79-.11,1.14a2.53,2.53,0,0,1-.57-1.94c-.84.82-.26,3.32-.46,4.45a2.23,2.23,0,0,1-.34-.8c-.28.33,0,1.25-.23,1.6-.23-.15-.25-.51-.34-.8-.58,1.33-.07,3.47.11,4.79-.33-.09-.28-.55-.46-.8-.23,1,.2,2.31.23,3.42-.82,0-1-.67-1.26-1.25-.28.47,0,1.38.11,1.83-.41.07-.94-.73-1-1.37-1,1.26-1.28,3.87-.8,5.93a4.13,4.13,0,0,1-.91-1.48,8.53,8.53,0,0,0,.23,4.79c-.21,0-.08-.38-.34-.34a13,13,0,0,0,1.25,3.65,2.75,2.75,0,0,1-1.94-.57c0,.75.69,1.36.68,1.71-.31.3-.49-.18-.8-.23-.13.17.06.66.17,1a72,72,0,0,0,16.42-10.11C117.63,127.62,117.66,127.53,117.68,127.44ZM54.14,26.49c-2-.06-4,2.45-2.39,3.54C54.65,32,56.45,26.56,54.14,26.49Zm14.71-3.65c-1.25-1-3.95-.65-5.25.11C63,26.91,69.76,26.19,68.86,22.84Z"/></g></g></svg>