<svg xmlns="http://www.w3.org/2000/svg" viewBox="0 0 971.37 912"><defs><style>.cls-1{fill:#231f20;}</style></defs><title>shape-2</title><g id="Layer_2" data-name="Layer 2"><g id="Layer_1-2" data-name="Layer 1"><path class="cls-1" d="M6.78,384.42a397.78,397.78,0,0,1,14.31-43.49c46.7-120.83,128-227.87,238.56-296.7C328.89,1.1,398.94-6.14,479,4.15c85,10.91,190,26.48,260.27,79.16,38.43,28.81,65.4,69.89,92.9,109.26,42.36,60.65,88.33,120.15,114.66,189.28,36.7,96.32,33.53,214.54-18.27,304.95C868.4,791.81,753.68,854,638.28,890.46c-50.77,16-104.86,28.26-157,17.43-40.37-8.38-74.86-30.27-111.5-48.34-39.52-19.48-79.33-38.52-117.21-61.1-61.87-36.9-119.8-85-151.91-149.52-21.11-42.38-52.55-78.42-75.36-119.79C-.15,483-6.54,435.74,6.78,384.42Z"/></g></g></svg>