<svg xmlns="http://www.w3.org/2000/svg" viewBox="0 0 288 34.76"><defs><style>.cls-1{fill:#DF6C58;}</style></defs><title>fg-wordmark-horz-blk</title><g id="Layer_2" data-name="Layer 2"><g id="logos"><path class="cls-1" d="M147.9,11.45V.9h-29l-.75,1.38A7.92,7.92,0,0,0,112.44.16a9.33,9.33,0,0,0-6.73,2.65,8.68,8.68,0,0,0-2.35,3.8V.9H78.21V6.73h1.33A8.42,8.42,0,0,1,82.31,7c.49.19.82.49.82,1.36V26.46c0,.75-.27,1-.76,1.14a11.53,11.53,0,0,1-2.83.19c-1.48,0-3-1.33-4.19-3.65a43.79,43.79,0,0,1-2-4.68,9.18,9.18,0,0,0,3.47-2.89A9.2,9.2,0,0,0,78.69,11C78.69,6.4,76.6.91,66.66.91H52.28v4A17.53,17.53,0,0,0,39.75,0,17,17,0,0,0,27.22,5.07a17.23,17.23,0,0,0-2.9,3.83V.9H0V6.73H1.35A8.29,8.29,0,0,1,4.1,7a1.25,1.25,0,0,1,.84,1.38V26.52c0,.75-.27,1-.76,1.14a13.41,13.41,0,0,1-2.83.18H0v5.83H18.34V27.83H13.77c-1.57,0-1.69-.58-1.69-1.33V19.31h7.58v-6H12.08V6.73H16a2.52,2.52,0,0,1,2.12.69,4.58,4.58,0,0,1,.52,2.65v1.33h4.57a18.62,18.62,0,0,0-1,6.2,16,16,0,0,0,5.23,12.26A17.79,17.79,0,0,0,39.9,34.52a17.8,17.8,0,0,0,12.39-4.63v3.78H68.38V27.83H67c-2.63,0-2.63-.94-2.63-1.38V20.79h2.32a31.79,31.79,0,0,0,1.14,4c2.33,6.5,7.61,8.82,11.76,8.82h23.16v0h4.47l.69-1.36a8.79,8.79,0,0,0,1.82,1.14,9.11,9.11,0,0,0,4,1,11.89,11.89,0,0,0,7.8-2.44,9.22,9.22,0,0,0,3.29-7.59,11,11,0,0,0-4.13-8.82,48.08,48.08,0,0,0-7.06-4.05c-2.63-1.38-2.93-2.32-2.93-2.66,0-1.48.43-2.39,2.6-2.39A3.62,3.62,0,0,1,116,8a6.41,6.41,0,0,1,1.61,3.14l.19,1.12h5.26V8.58a2.18,2.18,0,0,1,.7-1.21c.3-.24,1.14-.64,3.18-.64h5.13V26.5c0,.75-.27,1-.76,1.14a11.68,11.68,0,0,1-2.86.19h-1.35v5.83h17.12V27.83h-1.35a22.33,22.33,0,0,1-2.91-.09c-.24-.06-.63-.18-.63-1.24V6.76a4.79,4.79,0,0,1,2.2.43c.15.12.66.69.66,2.91v1.33h5.71ZM57.19,8.34v5.5A16.15,16.15,0,0,0,53.9,6.7a8.16,8.16,0,0,1,2.54.24C56.8,7.07,57.19,7.29,57.19,8.34ZM46.89,25.28a8.54,8.54,0,0,1-7.15,3.33,8.33,8.33,0,0,1-7.06-3.36,12.9,12.9,0,0,1-2.44-8,12.41,12.41,0,0,1,2.5-7.91A8.46,8.46,0,0,1,39.82,6a8.41,8.41,0,0,1,7.06,3.38,12.33,12.33,0,0,1,2.5,7.94A12.29,12.29,0,0,1,46.89,25.28Zm9.52,2.36a9.18,9.18,0,0,1-2.24.19,15.51,15.51,0,0,0,3-6.71v5.4C57.19,27.27,56.91,27.49,56.42,27.64ZM68.7,14.31a14.89,14.89,0,0,1-4.32.63V7a14.63,14.63,0,0,1,4.31.67A3.24,3.24,0,0,1,71.11,11,3.2,3.2,0,0,1,68.7,14.31Zm45.65,6.88c2,1.15,3.11,2.3,3.11,3.23a2.7,2.7,0,0,1-1,2.39,5.61,5.61,0,0,1-7-.69A5.89,5.89,0,0,1,108,22V20.72h-5.2v2.74H96.85l0,1.32A3.28,3.28,0,0,1,96,27a2.28,2.28,0,0,1-1.9.84l-3.8,0V19.15h8.36V13.32H90.32V6.73h3.87c1.58,0,2.63.49,2.63,2.89v1.33h6.26a10,10,0,0,0,4.17,6.1l.06,0,.07,0Z"/><path class="cls-1" d="M260.18,34.74l-15.49-22v13.8c0,.85.34,1,.73,1.17a11.14,11.14,0,0,0,2.75.18h1.3V33.6H232.65v0H220V27.8h1.3c1.81,0,2.18,0,2.24,0a4.16,4.16,0,0,0,.51-.1l-1.14-2.86h-8.61l-1,2.75a8.3,8.3,0,0,0,2.6.24h1.32v5.76H181.61l-.6-2a13.4,13.4,0,0,1-3.59,2,17.55,17.55,0,0,1-6,.94c-5.25,0-9.48-1.58-12.59-4.68s-4.66-7.34-4.66-12.57A16.84,16.84,0,0,1,159,4.92,16.64,16.64,0,0,1,171.21,0a17.38,17.38,0,0,1,6,1.12A14.37,14.37,0,0,1,180.74,3L181.46.7h24.13v5.9h-1.3a16,16,0,0,0-2.78.12c-.45.13-.7.34-.7,1.08V26.55c0,.73.24.94.72,1.09a11.11,11.11,0,0,0,2.77.19,3.8,3.8,0,0,0,1.69-.27,3.41,3.41,0,0,0,.88-1.49L217.37.4h3.17l10.93,25.83a2.69,2.69,0,0,0,.87,1.3,3.07,3.07,0,0,0,1.57.3h1.3v0a11.25,11.25,0,0,0,2-.18,1,1,0,0,0,.81-1.17V7.88c0-.87-.33-1-.75-1.17a16.63,16.63,0,0,0-2.86-.12h-1.3V1h12.21l11.6,16.41V7.8c0-.75-.28-.9-.61-1a9.55,9.55,0,0,0-2.56-.19h-1.3V.9H288V11.38h-5.64v-1.3c0-2.24-.51-2.83-.67-2.93s-.55-.34-2.26-.45V26.47c0,1.11.4,1.21.66,1.29a25.73,25.73,0,0,0,2.93.07h1.3V33.6h-17V27.83h1.3a11.57,11.57,0,0,0,2.86-.19c.52-.16.79-.39.79-1.17V6.67h-5.17c-2.08,0-2.9.4-3.21.66a1.59,1.59,0,0,0-.22.22,1.37,1.37,0,0,0,0,.25v27ZM171.8,6a8.69,8.69,0,0,0-7.09,3.2,11.68,11.68,0,0,0-2.53,7.76,13.72,13.72,0,0,0,2.32,8.19,8.07,8.07,0,0,0,7,3.47,12.16,12.16,0,0,0,5.16-1.3c1.87-.88,2.81-1.85,2.81-2.87,0-.75-1.69-1.64-6.41-1.64h-1.3v-6h15v11c2.32,0,5.58-.1,6.2-.19.45-.15.72-.4.72-1.15V7.88c0-.78-.28-1-.64-1.09-.66-.09-4.1-.15-6.56-.16v7h-6.29l0-1.27a5.75,5.75,0,0,0-2.81-4.57A9.53,9.53,0,0,0,171.8,6Zm48.9,13.15-2.06-5.46-2.17,5.46Z"/></g></g></svg>