<?xml version="1.0" encoding="utf-8"?>
<!-- Generator: Adobe Illustrator 22.0.1, SVG Export Plug-In . SVG Version: 6.00 Build 0)  -->
<svg version="1.1" id="Layer_1" xmlns="http://www.w3.org/2000/svg" xmlns:xlink="http://www.w3.org/1999/xlink" x="0px" y="0px"
	 viewBox="0 0 100.2 100.2" style="enable-background:new 0 0 100.2 100.2;" xml:space="preserve">
<style type="text/css">
	.st0{fill:none;}
	.st1{fill:#6D6D6D;}
	.st2{fill:#C8C8C8;}
	.st3{fill:#A6A6A6;}
	.st4{fill:#FFFFFF;}
	.st5{fill:#626262;}
</style>
<g>
	<circle class="st0" cx="50.1" cy="50.1" r="50"/>
	<g>
		<g>
			<path class="st1" d="M45.9,50.3c0.3-1.5,0.3-3.2,0.1-4.1c-0.5-0.2-1.6-1.3-1.9-1.9c-0.4,0.6-1.5,1.7-1.9,1.9c0,0.1,0,0.2-0.1,0.3
				C43.2,47.9,44.5,49.2,45.9,50.3 M63,45.8C63,45.9,63,45.9,63,45.8C63,45.9,63,45.9,63,45.8c-2.8-0.1-4.9,2.2-8.5,1.3
				c0.5,0.5,1.4,0.7,1.8,0.7c0,0,0,0,0,0c0,0,0,0,0,0c-2.2,0.4-4.5,0.1-6.1-1.3c-0.5,2-1.2,3.8-1.8,5.5c0.6,0.4,1.2,0.7,1.8,1
				c2.7-1.4,5.1-3.3,7.2-5.5c0.8-0.1,1.6-0.4,2.4-0.7c0.2-0.1,0.5-0.2,0.7-0.3c-2.8,3.4-6.3,6.2-10.3,8.1c-10-5-17.1-15.1-17.5-27
				c4.6-4.1,10.7-6.6,17.5-6.6c1.7,0,3.4,0.2,5,0.5c-0.3,0.5-0.6,1-0.8,1.5c-1.4-0.3-2.8-0.4-4.3-0.4c-5.7,0-10.8,2.2-14.6,5.8
				c0,1.9,0.2,3.8,0.5,5.7c0.3-3.5,1.7-5.5,3.2-7c1.2-1.2,3.8-2.5,4.7-2.5c0.8,0,3.5,1.3,4.7,2.5c1.8,1.8,3.4,4.2,3.3,9
				c-0.1,2.1-0.4,4.4-0.8,6.6c-2.8-0.7-5.1-3-5.9-5.4c-0.9-2.5-0.1-5.6-2-7c0,0,0,0,0,0c0,0,0,0,0,0c1.4,1.7,0.4,4.6,1.2,7.1
				c1.4,4,5.5,7.1,10.2,6.4c0,0,0,0,0,0c0,0,0,0,0,0C54,44.6,52.7,45,51.7,45C55,46.3,58.3,42.9,63,45.8 M54.6,31
				c0.2,0.5,0.9,1.5,1.6,1.6c0.9,0.2,1.5-0.4,1.5-0.4c-0.2-0.6-1-1.6-1.4-1.9C55.8,30.3,54.9,30.7,54.6,31 M57.6,37.3
				C57.6,37.3,57.6,37.3,57.6,37.3C57.6,37.3,57.6,37.3,57.6,37.3c-0.4,0-1.1,0.2-1.3,0.6c0.7,0.3,1.4,1,1.6,1.8
				c0.2-0.1,0.4-0.5,0.4-0.7c0,0,0,0,0,0c0,0,0,0,0,0c0,0.1,0,0.1,0.1,0.2c0.2,0.3,0.5,0.4,0.7,0.3c0.2-0.1,0.2-0.5,0-0.8
				c-0.1-0.2-0.3-0.3-0.5-0.4c0,0,0,0,0,0c0,0,0,0,0,0c0.2-0.1,0.5-0.1,0.7,0.1c0.1,0.1,0.2,0.2,0.3,0.3c0.2-0.2,0.6-0.5,0.9-0.5
				c-0.3-0.6-0.9-2.2-1-3C58.7,35.2,57.6,36.2,57.6,37.3 M57.7,20.3C57.8,20.3,57.8,20.3,57.7,20.3C57.8,20.3,57.8,20.3,57.7,20.3
				c-0.3,1.2-1,4-1.3,5.1c0.2-0.1,0.6-0.5,0.7-0.7c0,0,0,0,0,0c0,0,0,0,0,0c0.1,0.2,0.2,0.7,0.2,1c0.9-0.8,3.1-3,3.9-4c0,0,0,0,0,0
				c0,0,0,0,0,0c0.4,2.7-1.4,5-3.6,6c0.5,0.5,1.7,2,2.3,3.2c0,0.4-0.2,1.1-0.5,1.7c0.1,1.3,0.9,4.3,1.5,5.3c0,0.4-0.1,1.1-0.3,1.5
				c-0.4,0.2-1.3,0.5-1.8,0.6c0.2,0.1,0.6,0.1,0.8,0.1c0,0,0,0,0,0c0,0,0,0,0,0c-0.1,0.1-0.3,0.4-0.5,0.5c-0.6,0.2-1.3,0.2-1.7,0.1
				c0,0,0,0,0,0c0-0.1-0.1-0.9-1-1.9c-0.7-0.7-2.3-1.7-3-2.5c-0.4-0.5-0.8-1.2-0.9-2.3c0-0.2,0-0.3-0.1-0.5h0
				c-0.4-3.1-1.6-5-2.9-6.4c0.5,0.1,1.3,0.6,1.9,0.5c0.7-0.1,0.7-1.5,1.4-2.1c0,0,0,0,0,0c0,0,0,0,0,0c0,0.3,0.1,0.9,0.2,1.1
				c0.1-0.9,0.5-1.8,0.9-2.2c0,0,0,0,0,0c0,0,0,0,0,0c0,0.4,0.3,1.1,0.6,1.2C54.4,23.3,55.7,21,57.7,20.3 M55.3,31.2
				c0.4,0.2,0.5,1.1,1.6,0.8c0.1,0,0.2,0.1,0.3,0.2c0,0,0,0,0,0c0,0,0,0,0,0C57,31.1,56,30.9,55.3,31.2
				C55.3,31.2,55.3,31.2,55.3,31.2C55.3,31.2,55.3,31.2,55.3,31.2 M57.2,24c0.3,0.1,0.6,0.2,0.9,0.3c0.4-0.4,1-0.9,1.4-1.4
				c-0.6-0.2-1.3-0.4-1.9-0.6C57.5,22.9,57.3,23.5,57.2,24 M60.8,25.7c0.4-0.5,0.7-1.2,0.9-1.8c2.2,1.1,4.3,2.4,6,4
				c-0.2,6.3-2.3,12.1-5.8,17c-0.6-0.3-1.2-0.4-1.8-0.5c3-4.5,4.8-9.9,4.7-15.6C63.6,27.5,62.2,26.5,60.8,25.7"/>
		</g>
		<g>
			<path class="st1" d="M40.1,63.3h5.3v6.4c-1.5,0-3.3,0.8-5.4,0.8c-4.5,0-6.1-2.6-6.1-6.5c0-3.9,1.9-6.5,6.4-6.5
				c2.1,0,3.3,0.4,4.4,0.7v3c-0.9-0.3-2.3-0.8-4-0.8c-2.3,0-3.3,1.3-3.3,3.6c0,2.3,0.6,3.7,3.3,3.7c0.5,0,1-0.1,1.3-0.2V66h-1.3
				c-0.3,0-0.5-0.2-0.5-0.5V63.3z M29.1,57.7h3.4v12.1c0,0.3-0.2,0.5-0.5,0.5h-2.9V57.7z M83.4,66.8c0,2.2-2,3.8-5.4,3.8
				c-2.2,0-3.8-0.7-4.9-1.3c-0.2-0.1-0.3-0.3-0.3-0.5v-3c1.8,1.3,4.1,1.9,5.2,1.9c0.9,0,1.7-0.2,1.7-0.9c0-0.7-0.5-0.9-2-1.3
				c-2.4-0.7-4.8-1.5-4.8-4.2c0-2.1,1.9-3.7,5.1-3.7c1.5,0,2.8,0.4,4.1,0.9v3c-1.5-0.6-2.7-0.9-4.1-0.9c-1,0-1.5,0.3-1.5,0.8
				c0,0.5,0.6,0.7,1.7,1.1C80.7,63.1,83.4,64,83.4,66.8 M52.5,65.5l1.6-4.2l1.6,4.2H52.5z M52.2,57.7l-4.9,12.6h3.4l1.3-3.5l0.3,0.9
				c0.1,0.3,0.4,0.5,0.7,0.5h3.7l0.6,1.6c0.1,0.3,0.4,0.5,0.7,0.5H61l-4.9-12.6H52.2z M71.9,66.8c0,2.2-2,3.8-5.4,3.8
				c-2.2,0-3.8-0.7-4.9-1.3c-0.2-0.1-0.3-0.3-0.3-0.5v-3c1.8,1.3,4.1,1.9,5.2,1.9c0.9,0,1.7-0.2,1.7-0.9c0-0.7-0.5-0.9-2-1.3
				c-2.4-0.7-4.8-1.5-4.8-4.2c0-2.1,1.9-3.7,5.1-3.7c1.5,0,2.8,0.4,4.1,0.9v3c-1.5-0.6-2.7-0.9-4.1-0.9c-1,0-1.5,0.3-1.5,0.8
				c0,0.5,0.6,0.7,1.7,1.1C69.2,63.1,71.9,64,71.9,66.8 M22.9,67.7h-2.5v-2.7h2.5c1.1,0,1.7,0.5,1.7,1.3
				C24.7,67.2,24.1,67.7,22.9,67.7 M20.4,60.4h1.7c0.9,0,1.4,0.4,1.4,1.1c0,0.7-0.5,1.1-1.4,1.1h-1.7V60.4z M25.6,63.6
				c0.9-0.6,1.4-1.5,1.4-2.5c0-1.8-1.5-3.3-4.7-3.3H17v12.6h6.1c3.3,0,5-1.6,5-3.6C28.1,65.4,27.3,64.2,25.6,63.6 M84.3,58.5
				c0,0-0.1,0.1-0.2,0.1h-0.1v-0.5h0.1c0.1,0,0.1,0,0.2,0.1c0,0,0.1,0.1,0.1,0.2C84.3,58.4,84.3,58.5,84.3,58.5 M84.4,58.5
				c0-0.1,0.1-0.1,0.1-0.2c0-0.1,0-0.2-0.1-0.3c-0.1-0.1-0.2-0.1-0.3-0.1h-0.3v1h0.2v-0.2h0.1c0,0,0,0,0.1,0l0.2,0.3h0.2l-0.2-0.3
				C84.4,58.6,84.4,58.6,84.4,58.5 M84.1,59.2c-0.4,0-0.8-0.3-0.8-0.8c0-0.4,0.3-0.8,0.8-0.8c0.4,0,0.8,0.3,0.8,0.8
				C84.9,58.9,84.5,59.2,84.1,59.2 M84.1,57.5c-0.5,0-0.9,0.4-0.9,0.9c0,0.5,0.4,0.9,0.9,0.9c0.5,0,0.9-0.4,0.9-0.9
				C85,57.9,84.6,57.5,84.1,57.5"/>
		</g>
		<g>
			<path class="st2" d="M20.4,78.2c0.4,0.7,1,1.1,1.8,1.1c0.8,0,1.4-0.4,1.4-1c0-0.7-0.6-1-1.3-1.3l-0.5-0.2c-1.2-0.5-2-1.1-2-2.4
				c0-1.2,0.9-2.1,2.2-2.1c1,0,1.8,0.4,2.3,1.2l-0.9,0.6c-0.3-0.5-0.7-0.8-1.3-0.8c-0.6,0-1,0.4-1,0.9c0,0.6,0.4,0.9,1.2,1.3
				l0.5,0.2c1.2,0.5,2,1.1,2,2.4c0,1.5-1.1,2.2-2.6,2.2c-1.3,0-2.3-0.7-2.9-1.7L20.4,78.2z"/>
			<path class="st2" d="M32.5,76.3c0-1.7-1.2-2.9-2.8-2.9c-1.6,0-2.8,1.3-2.8,2.9c0,1.7,1.2,2.9,2.8,2.9
				C31.3,79.2,32.5,78,32.5,76.3 M25.6,76.3c0-2.3,1.8-4.1,4.1-4.1s4.1,1.7,4.1,4.1c0,2.3-1.8,4.1-4.1,4.1S25.6,78.6,25.6,76.3"/>
			<polygon class="st2" points="35.1,72.3 36.4,72.3 36.4,79.1 39.9,79.1 39.9,80.3 35.1,80.3 			"/>
			<path class="st2" d="M40.7,77.5v-5.1h1.2v5.1c0,1.3,0.6,1.8,1.8,1.8c1.1,0,1.8-0.6,1.8-1.8v-5.1h1.2v5.1c0,1.9-1.3,2.9-3,2.9
				C42,80.4,40.7,79.4,40.7,77.5"/>
			<polygon class="st2" points="50,73.4 47.7,73.4 47.7,72.3 53.6,72.3 53.6,73.4 51.3,73.4 51.3,80.3 50,80.3 			"/>
			<rect x="54.6" y="72.3" class="st2" width="1.2" height="7.9"/>
			<path class="st2" d="M64.1,76.3c0-1.7-1.2-2.9-2.8-2.9c-1.6,0-2.8,1.3-2.8,2.9c0,1.7,1.2,2.9,2.8,2.9
				C62.9,79.2,64.1,78,64.1,76.3 M57.2,76.3c0-2.3,1.8-4.1,4.1-4.1s4.1,1.7,4.1,4.1c0,2.3-1.8,4.1-4.1,4.1S57.2,78.6,57.2,76.3"/>
			<polygon class="st2" points="67.9,75 67.9,80.3 66.7,80.3 66.7,72.2 66.8,72.2 71.9,77.5 71.9,72.3 73,72.3 73,80.4 72.9,80.4 
							"/>
			<path class="st2" d="M75.2,78.2c0.4,0.7,1,1.1,1.8,1.1c0.8,0,1.4-0.4,1.4-1c0-0.7-0.6-1-1.3-1.3l-0.5-0.2c-1.2-0.5-2-1.1-2-2.4
				c0-1.2,0.9-2.1,2.2-2.1c1,0,1.8,0.4,2.3,1.2l-0.9,0.6c-0.3-0.5-0.7-0.8-1.3-0.8c-0.6,0-1,0.4-1,0.9c0,0.6,0.4,0.9,1.2,1.3
				l0.5,0.2c1.2,0.5,2,1.1,2,2.4c0,1.5-1.1,2.2-2.6,2.2c-1.3,0-2.3-0.7-2.9-1.7L75.2,78.2z"/>
		</g>
	</g>
</g>
</svg>
