<?xml version="1.0" encoding="utf-8"?>
<!-- Generator: Adobe Illustrator 22.0.1, SVG Export Plug-In . SVG Version: 6.00 Build 0)  -->
<svg version="1.1" id="Layer_1" xmlns="http://www.w3.org/2000/svg" xmlns:xlink="http://www.w3.org/1999/xlink" x="0px" y="0px"
	 viewBox="0 0 100.2 100.2" style="enable-background:new 0 0 100.2 100.2;" xml:space="preserve">
<style type="text/css">
	.st0{fill:none;}
	.st1{fill:#6D6D6D;}
	.st2{fill:#C8C8C8;}
	.st3{fill:#A6A6A6;}
	.st4{fill:#FFFFFF;}
	.st5{fill:#626262;}
</style>
<g>
	<circle class="st0" cx="50.1" cy="50.1" r="50"/>
	<g id="g12" transform="matrix(1.25,0,0,-1.25,-492.10622,337.84124)">
		<path id="path320" class="st1" d="M465.9,230.5h2.7l0.7,3.2h-2.7l0.7,3.5h-4l-2.1-10.1c-0.1-0.6-0.2-1-0.2-1.4
			c0-0.5,0.2-0.9,0.6-1.3c0.3-0.4,0.7-0.6,1-0.8c0.4-0.1,0.8-0.2,1.3-0.2h3.1l0.6,3h-1.6c-0.4,0-0.7,0.1-0.8,0.2
			c-0.1,0-0.1,0.1-0.1,0.4L465.9,230.5L465.9,230.5z"/>
		<path id="path322" class="st1" d="M399.1,237.3l-0.7-3.3h4.4l0.7,3.3H399.1z"/>
		<path id="path324" class="st1" d="M412.3,228.3l2.7-4.9h5l-3.1,5.5c0.6,0.3,1.1,0.8,1.4,1c0.6,0.5,1.3,1.6,1.5,2.6
			c0.3,1.3,0,2.5-0.7,3.4c-0.8,1-2.4,1.4-3.6,1.4h-10.2l-0.7-3.3h4.4h0.5l3.7,0c0.7,0,1.2-0.1,1.5-0.4c0.2-0.1,0.3-0.3,0.2-0.7
			c-0.1-0.4-0.4-0.7-0.9-0.9c-0.5-0.2-1-0.4-1.5-0.4h-4l0.3,1.4h-4.5l-2-9.5h0.8h3.2h0.5l1,4.9H412.3L412.3,228.3z"/>
		<path id="path326" class="st1" d="M398.2,232.9l-2-9.5h4.4l2,9.5H398.2z"/>
		<path id="path328" class="st1" d="M428.3,228.8c-0.2-0.8-0.5-1.5-1-2c-0.5-0.4-1.1-0.7-2-0.7c-0.7,0-1.2,0.2-1.5,0.6
			c-0.3,0.4-0.4,1-0.3,1.7c0.1,0.7,0.5,1.2,1,1.6c0.5,0.4,1.2,0.6,1.9,0.6c0.7,0,1.3-0.2,1.6-0.5
			C428.3,229.8,428.4,229.3,428.3,228.8 M431.7,232.5c-1,0.9-2.6,1.4-4.5,1.4c-1.7,0-3.3-0.4-4.7-1.2c-1.6-0.9-2.6-2.2-2.9-3.8
			c-0.4-2,0-3.5,1.3-4.5c1-0.8,2.6-1.2,4.6-1.2c1.8,0,3.4,0.4,4.7,1.2c1.4,0.9,2.3,2.1,2.7,3.7l0.1,0.5
			C433.2,230.2,432.8,231.5,431.7,232.5"/>
		<path id="path330" class="st1" d="M456.5,228.8c-0.2-0.9-0.5-1.5-1-2c-0.5-0.4-1.1-0.7-2-0.7c-0.7,0-1.2,0.2-1.5,0.6
			c-0.3,0.4-0.4,1-0.3,1.7c0.1,0.7,0.5,1.2,1,1.6c0.6,0.4,1.2,0.6,1.9,0.6c0.7,0,1.2-0.2,1.6-0.5
			C456.5,229.8,456.6,229.3,456.5,228.8 M459.6,232.5c-1,0.9-2.6,1.4-4.5,1.4c-1.7,0-3.3-0.4-4.7-1.2c-1.6-0.9-2.6-2.2-2.9-3.8
			c-0.4-2,0-3.5,1.3-4.5c1-0.8,2.6-1.2,4.6-1.2c1.8,0,3.4,0.4,4.7,1.2c1.4,0.9,2.3,2.1,2.7,3.7l0.1,0.5
			C461.1,230.2,460.7,231.5,459.6,232.5"/>
		<path id="path332" class="st1" d="M442.4,228.8c-0.2-0.8-0.5-1.5-1-2c-0.5-0.4-1.1-0.7-2-0.7c-0.7,0-1.2,0.2-1.5,0.6
			c-0.1,0.1-0.1,0.2-0.1,0.5c0,0.5,0.3,1.8,0.4,2.2c0.1,0.3,0.2,0.4,0.4,0.6c0.5,0.4,1.2,0.6,1.9,0.6c0.7,0,1.3-0.2,1.6-0.5
			C442.4,229.8,442.5,229.3,442.4,228.8 M445.5,232.5c-1.1,0.9-2.6,1.4-4.5,1.4c-0.7,0-1.5-0.1-2.2-0.2l0.9,3.7h-4.3l-1.6-7.1
			c-0.1-0.2-0.5-2.4-0.5-3.3c0-1,0.5-2,1.3-2.6c1-0.8,2.6-1.2,4.6-1.2c1.8,0,3.4,0.4,4.7,1.2c1.4,0.9,2.3,2.1,2.7,3.7l0,0
			C446.6,228.1,447.3,231,445.5,232.5"/>
		<path id="path334" class="st1" d="M469.9,236.1h0.3c0.1,0,0.2,0,0.2,0.1c0,0,0.1,0.1,0.1,0.2c0,0.1,0,0.1-0.1,0.2
			c0,0-0.1,0.1-0.2,0.1h-0.4V236.1L469.9,236.1z M470.8,235.4h-0.2l-0.3,0.6h-0.4v-0.6h-0.2v1.3h0.6c0.2,0,0.3,0,0.3-0.1
			c0.1-0.1,0.1-0.2,0.1-0.3c0-0.1,0-0.1-0.1-0.2c0-0.1-0.1-0.1-0.2-0.1L470.8,235.4L470.8,235.4z M471.2,236.1
			c0,0.3-0.1,0.5-0.3,0.7c-0.2,0.2-0.4,0.3-0.7,0.3c-0.3,0-0.5-0.1-0.7-0.3c-0.2-0.2-0.3-0.4-0.3-0.7c0-0.3,0.1-0.5,0.3-0.7
			c0.2-0.2,0.4-0.3,0.7-0.3c0.3,0,0.5,0.1,0.7,0.3C471.1,235.6,471.2,235.8,471.2,236.1 M471.4,236.1c0-0.3-0.1-0.6-0.3-0.8
			s-0.5-0.3-0.8-0.3c-0.3,0-0.6,0.1-0.8,0.3s-0.3,0.5-0.3,0.8c0,0.3,0.1,0.6,0.3,0.8c0.2,0.2,0.5,0.3,0.8,0.3c0.3,0,0.6-0.1,0.8-0.3
			C471.3,236.6,471.4,236.4,471.4,236.1"/>
	</g>
</g>
</svg>
