<?xml version="1.0" encoding="utf-8"?>
<!-- Generator: Adobe Illustrator 22.0.1, SVG Export Plug-In . SVG Version: 6.00 Build 0)  -->
<svg version="1.1" id="Layer_1" xmlns="http://www.w3.org/2000/svg" xmlns:xlink="http://www.w3.org/1999/xlink" x="0px" y="0px"
	 viewBox="0 0 100.2 100.2" style="enable-background:new 0 0 100.2 100.2;" xml:space="preserve">
<style type="text/css">
	.st0{fill:none;}
	.st1{fill:#6D6D6D;}
	.st2{fill:#C8C8C8;}
	.st3{fill:#A6A6A6;}
	.st4{fill:#FFFFFF;}
	.st5{fill:#626262;}
</style>
<g>
	<circle class="st0" cx="50.1" cy="50.1" r="50"/>
	<g>
		<circle class="st1" cx="50" cy="50.2" r="31"/>
		<g id="pYjPoN">
			<path class="st4" d="M50.5,61.2c-0.7,0.2-1.4,0.3-2.2,0.3c-1.6,0.2-3.3,0.2-5,0.1c-1.7-0.1-3.4-0.7-4.9-1.6
				c-0.2-0.1-0.3-0.1-0.3,0.1v0.1C38,61.2,38,61.2,37,61.2H24.4c-0.5,0-0.5,0-0.4-0.4c1.6-7,3.2-14,4.8-21c0-0.3,0.2-0.5,0.5-0.5
				c0,0,0,0,0.1,0c1.8,0,3.5,0,5.3,0c0.4,0,0.4,0,0.3,0.4L31.3,56c-0.1,0.4-0.1,0.4,0.3,0.4H35c0.2,0,0.3,0,0.2-0.3
				c-0.6-1.4-0.8-2.8-0.7-4.3c0-2.3,0.5-4.5,1.5-6.6c1.6-3.7,4.9-6.3,8.9-6.8c3.1-0.5,6.3-0.1,9.2,1.3c1.5,0.6,2.7,1.8,3.2,3.4
				c0.3,1.2,0.3,2.5-0.1,3.7c0,0.1-0.2,0.2-0.3,0.2h-5.5c-0.2,0-0.3-0.1-0.2-0.3c0.1-0.5,0.1-1,0.1-1.6c-0.2-1.2-1.2-2.1-2.4-2.3
				c-2.4-0.7-5,0.3-6.2,2.5c-0.9,1.5-1.5,3.3-1.6,5c-0.1,1.1-0.1,2.2,0.1,3.3c0.4,2.4,1.9,3.6,4.4,3.5c1,0,2-0.3,2.9-0.6
				c0.2-0.1,0.3-0.2,0.3-0.4c0.2-0.9,0.4-1.7,0.6-2.6c0.1-0.3,0-0.3-0.3-0.3c-1,0-2.1,0-3.1,0c-0.3,0-0.4-0.1-0.3-0.4
				c0.3-1.3,0.6-2.6,0.9-3.9c0-0.3,0.2-0.5,0.5-0.5c0,0,0.1,0,0.1,0c3.3,0,6.6,0,9.9,0c0.3,0.1,0.5-0.1,0.6-0.4c0,0,0-0.1,0-0.1
				c0.7-2.9,1.3-5.8,2-8.7c0-0.2,0.2-0.4,0.4-0.4c0,0,0,0,0.1,0c4.7,0,9.4,0,14.1,0c0.3,0,0.4,0.1,0.3,0.4c-0.3,1.3-0.6,2.7-0.9,4
				c0,0.2-0.2,0.3-0.4,0.3c0,0-0.1,0-0.1,0h-7.7c-0.5,0-0.5,0-0.6,0.5l-0.5,2.3c-0.1,0.4-0.1,0.4,0.4,0.4h7.6c0.5,0,0.5,0,0.4,0.5
				c-0.3,1.3-0.6,2.7-0.8,3.9c0,0.2-0.2,0.4-0.4,0.4c0,0,0,0-0.1,0c-2.5,0-5.1,0-7.6,0c-0.6,0-0.5,0-0.7,0.5
				c-0.3,1.2-0.6,2.3-0.8,3.5c-0.1,0.3,0,0.4,0.3,0.4c2.6,0,5.1,0,7.7,0c0.5,0,0.5,0,0.4,0.5c-0.3,1.3-0.6,2.7-0.9,4
				c0,0.2-0.2,0.4-0.4,0.4c0,0,0,0-0.1,0c-2.4,0-4.8,0-7.2,0c-0.2,0-0.4-0.1-0.5-0.2c-0.3-0.4-0.6-0.7-0.9-1.1
				c-0.1-0.1-0.1-0.2-0.1-0.3c0,0,0,0,0.1-0.1c0.3-0.3,0.5-0.6,0.8-0.9c0.1-0.1,0.1-0.3,0.1-0.4c0,0,0,0-0.1-0.1
				c-0.4-0.6-0.9-1.1-1.3-1.7c-0.1-0.2-0.2-0.2-0.4,0c-0.2,0.3-0.5,0.6-0.8,0.7c-0.1,0.1-0.2,0.1-0.3,0c0,0,0,0,0-0.1
				c-0.3-0.5-0.7-0.9-1.1-1.3c-0.2-0.2-0.1-0.3,0.1-0.3c0.7-0.3,1.4-0.8,1.9-1.3c1.3-1.3,1.3-3.9-1.3-4.6c-1-0.3-2.1-0.4-3.1-0.3
				c-1,0.1-1.9,0.6-2.6,1.3c-0.9,0.9-0.9,2-0.3,3.2c0.2,0.3,0.4,0.6,0.6,0.9c0.2,0.2,0.1,0.3-0.1,0.3c-1,0.3-1.9,0.8-2.7,1.6
				c-1.2,1.1-1.3,2.9-0.2,4.1c0,0,0,0,0,0C50.2,60.9,50.3,61,50.5,61.2z"/>
			<path class="st4" d="M54.2,59.8c-0.5,0-0.9-0.2-1.3-0.5c-0.4-0.3-0.4-0.8-0.2-1.2c0.4-0.6,1-1,1.7-1.2c0.1,0,0.2,0,0.3,0.1
				l1.5,1.9c0.1,0.1,0.1,0.2,0,0.3C55.6,59.6,54.9,59.8,54.2,59.8z"/>
			<path class="st4" d="M56.1,51.1c0.1,0,0.2,0,0.3,0c0.5,0,0.8,0.3,1,0.8c0.1,0.4-0.1,0.9-0.5,1.1c-0.3,0.2-0.6,0.4-0.9,0.6
				c-0.1,0.1-0.3,0-0.4-0.1c0,0,0,0,0,0c-0.2-0.2-0.4-0.5-0.5-0.7C54.5,51.8,55,51.1,56.1,51.1z"/>
		</g>
	</g>
</g>
</svg>
