<?xml version="1.0" encoding="utf-8"?>
<!-- Generator: Adobe Illustrator 22.0.1, SVG Export Plug-In . SVG Version: 6.00 Build 0)  -->
<svg version="1.1" id="Layer_1" xmlns="http://www.w3.org/2000/svg" xmlns:xlink="http://www.w3.org/1999/xlink" x="0px" y="0px"
	 viewBox="0 0 100.2 100.2" style="enable-background:new 0 0 100.2 100.2;" xml:space="preserve">
<style type="text/css">
	.st0{fill:none;}
	.st1{fill:#6D6D6D;}
	.st2{fill:#C8C8C8;}
	.st3{fill:#A6A6A6;}
	.st4{fill:#FFFFFF;}
	.st5{fill:#626262;}
</style>
<g>
	<circle class="st0" cx="50.1" cy="50.1" r="50"/>
	<g>
		<path class="st1" d="M62.4,68.5h4.4c0,0,0.8-0.1,0.9-0.7v-0.6c0-0.4-0.3-0.7-0.6-0.7h-4.6L62.4,68.5L62.4,68.5z M59.7,64.5h8.9
			c1.9,0.1,2.1,2,2.1,2v1.4c0,1.3-1.3,1.7-1.3,1.7c0.6,0.1,1.1,0.6,1.2,1.2v2.1h-2.8v-1.4c-0.1-0.3-0.3-0.6-0.7-0.7h-4.6v2.1h-2.8
			V64.5L59.7,64.5L59.7,64.5z"/>
		<path class="st1" d="M35.3,69.5h3l-1.6-2.8L35.3,69.5z M35.1,64.5h3.4l4.8,8.4h-3l-0.9-1.5h-5.2l-0.9,1.5h-3L35.1,64.5z"/>
		<polygon class="st1" points="20.7,64.5 30.4,64.5 30.4,66.5 23.4,66.5 23.4,67.7 29.8,67.7 29.8,69.5 23.4,69.5 23.4,70.9 
			30.4,70.9 30.4,72.9 20.7,72.9 		"/>
		<polygon class="st1" points="43.4,64.5 46.1,64.5 46.1,70.6 51.9,70.6 51.9,72.9 43.4,72.9 		"/>
		<polygon class="st1" points="49,64.5 59.2,64.5 59.2,66.4 55.5,66.4 55.5,72.9 52.8,72.9 52.8,66.4 49,66.4 		"/>
		<polygon class="st1" points="71,64.5 80.5,64.5 80.5,66.5 73.7,66.5 73.7,67.7 80.1,67.7 80.1,69.5 73.7,69.5 73.7,70.9 
			80.7,70.9 80.7,72.9 71,72.9 		"/>
		<polygon class="st1" points="81.2,64.5 90.8,64.5 90.8,66.5 84,66.5 84,67.7 90.3,67.7 90.3,69.5 84,69.5 84,70.9 91,70.9 
			91,72.9 81.2,72.9 		"/>
		<path class="st1" d="M12,68.5h4.4c0,0,0.8-0.1,0.9-0.7v-0.6c0-0.4-0.3-0.7-0.6-0.7H12L12,68.5L12,68.5z M9.2,64.5h8.9
			c1.9,0.1,2.1,2,2.1,2v1.4c0,1.3-1.3,1.7-1.3,1.7c0.6,0.1,1.1,0.6,1.2,1.2v2.1h-2.8v-1.4c-0.1-0.3-0.3-0.6-0.6-0.7h-4.6v2.1H9.3
			L9.2,64.5L9.2,64.5L9.2,64.5z"/>
		<g>
			<path class="st1" d="M49.5,51c-1,0.8-2.6-11.7-14.2-13.9c-1-1.5,0.2-5.5,0.7-6.9c2-1.2,4.4-2.6,5.1-3.1l1.3-1
				c-1.4-0.1-3.5,0.7-5.3,1.7c1-2.3,2.4-5.6,2.6-6.3c0.2-0.6,0.3-0.9,0.5-1.3c-0.5,0.3-1,0.8-1.4,1.3c-1.8,2-3.5,5.9-4.1,7.4
				c-0.2,0.1-0.4,0.2-0.6,0.4c-1.7,1.1-6.9,4.1-9.7,10.6c-0.2,0.4-0.4,0.9-0.5,1.3c-2.5,7.3,1.7,12,5.6,14.8
				c3.7,2.6,8.9,1.7,9.6,1.1s-1-0.6-1-0.6c-5.2,0-8.1-2.5-8.3-3.1c-0.2-0.6-0.4-1.3,1-2s7-3.8,7.3-4.8c0.3-1-0.4-0.7-0.4-0.7
				s-9.3,6.4-10.9,1.6c-1.5-4.6,1.1-7,6.9-6.4c5.8,0.6,8.2,5.1,9,6.9c0.6,1.3,3.7,8.5,7,11.6V51L49.5,51z M30,37
				c-0.4-0.1-0.3-0.9,0.1-1.6c0.3-0.4,0.5-0.8,0.9-1.2c0.8-0.9,1.6-1.7,2.5-2.4C32.6,34.1,31.2,37.2,30,37L30,37z"/>
			<path class="st1" d="M50.7,51v8.5c3.3-3.1,6.4-10.2,7-11.6c0.8-1.8,3.2-6.3,9-6.9c5.8-0.6,8.4,1.8,6.9,6.4
				c-1.6,4.9-10.9-1.6-10.9-1.6s-0.7-0.3-0.4,0.7s5.9,4.1,7.3,4.8c1.4,0.7,1.2,1.4,1,2c-0.2,0.6-3.1,3.1-8.3,3.1c0,0-1.8,0-1,0.6
				c0.8,0.6,5.9,1.5,9.6-1.1c3.9-2.8,8.1-7.5,5.6-14.8c-0.1-0.5-0.3-0.9-0.5-1.3c-2.8-6.5-8-9.5-9.7-10.6c-0.2-0.1-0.4-0.2-0.6-0.4
				c-0.6-1.5-2.3-5.4-4.1-7.4c-0.4-0.5-0.8-1-1.4-1.3c0.4,0.6,0.7,1.2,0.9,1.9c0.2,0.7,1.2,3.3,2.2,5.7c-1.8-0.9-4-1.8-5.3-1.7
				c0,0-0.1,0,0.8,0.7c0.6,0.5,3.6,2.2,5.5,3.4c0.5,1.5,1.7,5.4,0.7,6.9c-11.6,2.2-13.2,14.8-14.2,14L50.7,51z M66.7,31.8
				c0.9,0.7,1.8,1.5,2.5,2.4c0.3,0.4,0.6,0.8,0.9,1.2c0.4,0.7,0.5,1.5,0.1,1.6C69,37.2,67.6,34.1,66.7,31.8z"/>
		</g>
		<path class="st1" d="M93.1,64.3c0.6,0,1.1,0.5,1.1,1.1c0,0.6-0.5,1.1-1.1,1.1s-1.1-0.5-1.1-1.1C91.9,64.9,92.4,64.4,93.1,64.3
			C93,64.3,93,64.3,93.1,64.3L93.1,64.3z M93.1,64.5c-0.5,0-0.9,0.4-0.9,0.9s0.4,0.9,0.9,0.9c0.5,0,0.9-0.4,0.9-0.9
			C94,64.9,93.6,64.5,93.1,64.5L93.1,64.5z M92.9,66.1h-0.2v-1.3c0.1,0,0.3,0,0.4,0c0.1,0,0.3,0,0.4,0.1c0.1,0.1,0.2,0.3,0.1,0.5
			c0,0.1-0.1,0.1-0.2,0.1l0,0c0.1,0,0.2,0.2,0.2,0.3c0,0.1,0,0.2,0.1,0.3h-0.2c-0.1-0.1-0.1-0.2-0.1-0.3c0-0.1-0.1-0.2-0.2-0.2
			c0,0,0,0,0,0h-0.2L92.9,66.1L92.9,66.1L92.9,66.1z M92.9,65.4H93c0.1,0,0.3-0.1,0.3-0.2c0,0,0,0,0,0v0c0-0.1-0.1-0.2-0.2-0.2
			c0,0,0,0,0,0h-0.2L92.9,65.4L92.9,65.4L92.9,65.4z"/>
	</g>
</g>
</svg>
