<?xml version="1.0" encoding="utf-8"?>
<!-- Generator: Adobe Illustrator 22.0.1, SVG Export Plug-In . SVG Version: 6.00 Build 0)  -->
<svg version="1.1" id="Layer_1" xmlns="http://www.w3.org/2000/svg" xmlns:xlink="http://www.w3.org/1999/xlink" x="0px" y="0px"
	 viewBox="0 0 100.2 100.2" style="enable-background:new 0 0 100.2 100.2;" xml:space="preserve">
<style type="text/css">
	.st0{fill:none;}
	.st1{fill:#6D6D6D;}
	.st2{fill:#C8C8C8;}
	.st3{fill:#A6A6A6;}
	.st4{fill:#FFFFFF;}
	.st5{fill:#626262;}
</style>
<g>
	<circle class="st0" cx="50.1" cy="50.1" r="50"/>
	<g>
		<path class="st1" d="M50.1,82.7c0,0-14.2-6.2-18.6-9.7c-4.7-3.9-6.9-9.2-6.9-15.3V27.4c11.3-6.1,25.5-5.6,25.5-5.6
			s14.2-0.5,25.5,5.6v30.2c0,6.1-2.2,11.4-6.9,15.3C64.4,76.5,50.1,82.7,50.1,82.7 M26.7,57.7c0,5.7,2.1,10.4,6.1,13.6
			c3.6,3,14.4,7.8,17.3,9.1c3-1.3,13.9-6.2,17.3-9.1c4-3.2,6.1-8,6.1-13.6V28c-15-1.4-32.9-0.6-46.9,12.3L26.7,57.7L26.7,57.7z"/>
		<path class="st1" d="M64.5,53.5c1.9,1.2,2.7,1.9,2.8,3.4c0,1.6-1,2.5-2.7,2.5c-1.4,0-3.1-0.8-4.3-1.8v4.1c1.4,0.8,3.1,1.4,4.9,1.4
			c4.4,0,6.5-3.1,6.5-6c0.1-2.6-0.6-4.7-4.4-6.9c-1.7-1-3-1.7-3-3.2c0-1.6,1.4-2.2,2.6-2.2c1.6,0,3.1,0.9,4,1.8v-3.9
			c-0.8-0.6-2.5-1.6-4.9-1.4c-3,0.1-6.1,2.2-6.1,5.8C60.1,49.6,60.9,51.4,64.5,53.5 M49.2,62.8c0.4,0.1,1,0.3,2.1,0.3
			c5,0,7.9-4.5,7.9-11c0-6.6-3-10.6-8.3-10.6c-2.5,0-4.4,0.5-6.1,1.6v29.3h4.4V62.8L49.2,62.8z M49.2,45.2c0.4-0.1,1-0.4,1.6-0.4
			c2.6,0,3.6,2.1,3.6,7.1c0,4.9-1.3,7.2-3.9,7.2c-0.6,0-1.2-0.1-1.4-0.3V45.2H49.2z M35.6,63c2.7,0,5-0.6,6.7-1.8V41.7h-4.5v17
			c-0.5,0.4-1.2,0.5-2.1,0.5c-2.1,0-2.3-1.9-2.3-3.1V41.7h-4.5v14.1C28.9,60.6,31.2,63,35.6,63 M65.8,80.5v3h0.5v-1.2h0.1l0.8,1.2
			h0.6c0,0-0.8-1.2-0.9-1.3c0.4-0.1,0.6-0.4,0.6-0.8c0-0.4-0.3-0.9-1-0.9H65.8L65.8,80.5z M66.6,80.9c0.4,0,0.5,0.3,0.5,0.4
			c0,0.3-0.1,0.5-0.6,0.5h-0.1v-0.9H66.6L66.6,80.9z"/>
		<path class="st1" d="M68.6,81.9c0,1-0.9,1.9-1.9,1.9s-1.9-0.9-1.9-1.9s0.9-1.9,1.9-1.9C67.9,80,68.6,80.9,68.6,81.9 M66.7,79.5
			c-1.3,0-2.5,1-2.5,2.5c0,1.3,1,2.5,2.5,2.5c1.3,0,2.5-1,2.5-2.5C69.2,80.6,68,79.5,66.7,79.5"/>
	</g>
</g>
</svg>
