<?xml version="1.0" encoding="utf-8"?>
<!-- Generator: Adobe Illustrator 22.0.1, SVG Export Plug-In . SVG Version: 6.00 Build 0)  -->
<svg version="1.1" id="Layer_1" xmlns="http://www.w3.org/2000/svg" xmlns:xlink="http://www.w3.org/1999/xlink" x="0px" y="0px"
	 viewBox="0 0 100.2 100.2" style="enable-background:new 0 0 100.2 100.2;" xml:space="preserve">
<style type="text/css">
	.st0{fill:none;}
	.st1{fill:#6D6D6D;}
	.st2{fill:#C8C8C8;}
	.st3{fill:#A6A6A6;}
	.st4{fill:#FFFFFF;}
	.st5{fill:#626262;}
</style>
<g>
	<circle class="st0" cx="50.1" cy="50.1" r="50"/>
	<g>
		<path class="st1" d="M79.7,44.1H80c0.1,0,0.3,0,0.3,0.2c0,0.2-0.1,0.2-0.3,0.2h-0.2V44.1z M79.6,45.1h0.2v-0.5h0.2l0.3,0.5h0.2
			l-0.3-0.5c0.2,0,0.3-0.1,0.3-0.3c0-0.2-0.1-0.3-0.4-0.3h-0.5V45.1z M79.1,44.5c0-0.5,0.4-0.9,0.8-0.9c0.5,0,0.8,0.4,0.8,0.9
			c0,0.5-0.4,0.9-0.8,0.9C79.5,45.4,79.1,45,79.1,44.5 M78.9,44.5c0,0.6,0.5,1,1,1c0.6,0,1-0.4,1-1c0-0.6-0.5-1-1-1
			C79.4,43.5,78.9,43.9,78.9,44.5"/>
		<path class="st1" d="M41.4,32.1c0.1-1.9,0.4-2.8,1-2.8c0,0,0.1,0,0.1,0c0.4,0.1,0.5,1.1,0.3,3.1c-0.2,1.8-0.8,3.7-1.2,4.9
			l-0.2,0.6l0-0.7C41.2,36,41.3,34.4,41.4,32.1 M39.8,53.5l0,0.4l-0.3-0.3c-0.8-0.9-2.5-1.8-4.2-2.5l-0.2-0.1l0.1-0.2
			c1.8-2.2,2.9-3.9,3.7-5.2l0.3-0.5l0,0.5C39.2,47.4,39.4,50.2,39.8,53.5 M55.2,47.1c0,0,0.1-0.1,0.2-0.1c0.2,0,0.4,0.2,0.6,0.6
			c0.2,0.4,0.2,0.9,0.1,1.5l0,0.1l0,0c-0.3-0.3-0.5-0.7-0.7-1.2C55.1,47.4,55.1,47.1,55.2,47.1 M72.1,51.7c1.3-1.6,2.7-2.4,4.1-2.4
			c0.3,0,0.7,0.1,1,0.2l0,0l0,0c-0.7,1.4-1,2.3-1.3,2.8c-0.6,1.2-1,2.3-1.2,3.1l0,0c-0.3,0.4-0.8,0.7-1.3,1
			c-0.7,0.4-1.3,0.6-1.8,0.6c-0.8,0-1.2-0.4-1.2-1.2C70.4,54.5,71,53.1,72.1,51.7 M36.8,46.4c-0.5,0.8-1.9,2.7-3.2,4.2l-0.1,0.1
			l-0.1,0c-1.7-0.3-2.8-0.3-4-0.2c-0.2,0-0.7,0.1-0.7,0.4c1.3,0.2,2.6,0.5,3.7,0.8l0.2,0.1l-0.2,0.2c-0.8,0.8-2,1.9-3.4,2.9
			c-4.4,3.2-9.8,4.9-15.8,4.9c-0.5,0-1.1,0-1.6,0c-4.6-0.2-7.9-2.4-7.9-4.2l0-0.2c0.3-1.8,3.5-3.4,8.5-4.3c-0.1-0.1-0.4-0.2-0.8-0.2
			c-1.4-0.1-3.3,0-4.6,0.4C3,52.1,1,53.7,1,55.7c0,2.9,4.8,5.4,10.6,5.6c7.5,0.3,14.3-1.9,19.5-6.2l0.1-0.1c1.4-1.2,2.3-2.2,2.9-2.8
			l0.1-0.1l0.1,0c1.2,0.5,2.1,1,2.8,1.6c1.7,1.3,3,3.3,4,5.7c0.5,1.5,1.1,2.8,1.7,3.9c2.1,3.5,4.5,3.9,5.5,3.9
			c0.6,0,1.1-0.1,1.4-0.3c0.7-0.4,1-1.4,0.4-2.4c0,0.3-0.1,0.6-0.3,0.8c-0.2,0.2-0.6,0.5-1.1,0.5c-0.6,0-1.6-0.4-2.8-2.3
			c-1-1.5-1.5-3-2.2-5.4c-0.1-0.3-0.3-1.3-0.4-2.1l0-0.1c1.1-0.4,2.1-1.4,2.6-2l0.1-0.1l0,0.1c-0.1,0.6-0.1,1.1-0.1,1.6
			c0,1,0.2,1.8,0.5,2.4c0.4,0.5,0.8,0.8,1.4,0.8c0,0,0.1,0,0.1,0c2.2,0,7.1-4.7,8.2-6.7l0,0l0,0c0.6,0.5,1.2,0.9,1.7,1.1l0,0l0,0
			c-0.2,0.3-0.4,0.7-0.7,1.3c-0.3,0.8-0.5,1.5-0.6,2c0,0.6,0.1,1.2,0.4,1.7c0.4,0.4,0.8,0.7,1.3,0.7l0.1,0c1.2,0,2.5-0.8,4-2.4
			c0.2-0.2,0.4-0.4,0.6-0.7l0.1-0.1l0,0.1c-0.1,0.3-0.1,0.6-0.1,0.9c0,0.7,0.2,1.3,0.5,1.7c0.3,0.4,0.7,0.6,1.2,0.6c0,0,0,0,0.1,0
			c0.6,0,1.4-0.4,2.4-1.1c0.5-0.4,1-0.8,1.2-1.1l0-0.1l0,0.1c0,0.6,0.2,1.1,0.5,1.5c0.4,0.5,0.9,0.8,1.5,0.8c1.5,0,3.1-0.8,4.6-2.4
			l0.1-0.1l0,0.1c0,0.9,0.1,1.5,0.5,1.9c0.3,0.3,0.6,0.4,1.1,0.4c0.6,0,1.4-0.4,2.3-1.2c0.7-0.6,1.2-1.1,1.6-1.5l0.1-0.1l-1.1-0.4
			l0,0.1c-0.8,0.9-1.4,1.3-1.9,1.3c-0.2,0-0.6-0.1-0.6-0.7c0-0.8,0.3-1.8,0.9-3.2c0.9-2,1.5-3.5,1.9-4.5l0,0l0,0
			c-0.1-0.3-0.4-0.5-0.9-0.4c-0.4,0.1-0.7,0.2-0.9,0.5l0,0l0,0c-0.3-0.2-0.9-0.2-1.7-0.2c-1.2,0.1-2.5,0.6-3.8,1.6
			c-1.1,0.8-2.1,1.9-2.9,3.1c-0.7,1.1-1.3,1.9-2,2.6c-0.7,0.8-1.4,1.3-2,1.3c-0.2,0-0.6-0.1-0.6-0.7c0-0.8,0.3-1.8,0.9-3.2l0.5-1.2
			c0.6-1.4,1.1-2.5,1.4-3.3l0,0l0,0c-0.1-0.3-0.4-0.5-1-0.4c-0.4,0.1-0.8,0.3-0.9,0.6c-0.9,1.8-4.7,8.7-7.1,8.9h0h0
			c-0.3-0.1-0.7-0.2-0.5-1.1c0-0.4,0.2-1,0.6-1.7c0.3-0.6,0.5-1,0.6-1.2l0,0l0,0c0.4,0.1,0.9,0,1.3-0.3c0.7-0.3,1-0.8,1-1.4
			c0-0.4-0.2-0.7-0.5-0.9C60.8,51,60.5,50.9,60,51c-0.4,0.1-0.7,0.3-1,0.5l0,0l0,0c-0.9-0.6-1.6-1.1-2-1.6l0,0l0,0
			c0.3-0.8,0.3-1.6,0.1-2.4c-0.2-0.6-0.5-1.1-0.9-1.4c-0.3-0.3-0.6-0.4-1-0.4c-0.1,0-0.2,0-0.2,0c-0.8,0.1-1.2,0.8-1.2,1.9
			c0,1.4,0.3,2.7,1.1,3.6l0,0l0,0c-2.1,3.1-5.3,5-6.1,5c0,0,0,0-0.1,0C48.3,56.3,48,56,48,55.2c0-1.1,0.4-2.7,1.1-4.6l1.6-4.4l0,0
			c8.8-3.3,13.8-3.8,16-3.8c0.7,0,1.4,0.1,1.8,0.2l0.1,0l-0.1,0c-0.4,0.1-0.8,0.4-0.9,0.7c-0.1,0.2-0.1,0.4-0.1,0.5
			c0.1,0.3,0.5,0.6,1,0.6c0.2,0,0.3,0,0.5-0.1c0.5-0.1,0.8-0.4,1-0.7c0.1-0.2,0.1-0.4,0.1-0.5c0-0.1-0.1-0.2-0.2-0.3
			c-0.5-0.5-1.8-0.8-3.7-0.8c-2.1,0-6.9,0.4-15,2.8l-0.1,0l0.3-0.8l0,0c-0.1-0.2-0.2-0.6-0.8-0.6c-0.1,0-0.2,0-0.3,0
			c-0.5,0.1-0.9,0.4-1.1,0.9l-0.5,1.2l0,0c-0.5,0.2-0.9,0.3-1.5,0.5c-0.3,0.1-0.9,0.2-1.2,0.2c-0.2,0-0.3-0.1-0.3-0.1
			c0,0,0-0.1,0.1-0.3l0.2-0.3l-0.3,0.1c-0.7,0.3-1,0.7-0.9,1.1c0.1,0.4,0.6,0.7,1.3,0.7c0,0,0.1,0,0.1,0c0.5-0.1,1.3-0.3,1.9-0.5
			l0.1,0l0,0.1c-0.6,1.5-0.7,1.7-0.7,1.8c-0.7,1.3-2.4,4.8-4.4,5.5l0-0.2c-0.2-1.9-0.5-3.8-0.6-5.1l-0.1-1c-0.3-3.3-0.5-5.9-0.5-7.6
			v0l0,0c1.3-2.4,2.2-5,2.6-7.8c0.1-0.5,0.1-1,0.1-1.5c0-2.2-0.6-3.3-1.9-3.3c-1,0-1.8,0.9-2.3,2.6c-0.8,2.6-1.1,6.7-1,11.7l0,0
			l-0.1,0.1C38.7,43.2,38,44.5,36.8,46.4"/>
	</g>
</g>
</svg>
