<?xml version="1.0" encoding="utf-8"?>
<!-- Generator: Adobe Illustrator 22.0.1, SVG Export Plug-In . SVG Version: 6.00 Build 0)  -->
<svg version="1.1" id="Layer_1" xmlns="http://www.w3.org/2000/svg" xmlns:xlink="http://www.w3.org/1999/xlink" x="0px" y="0px"
	 viewBox="0 0 100.2 100.2" style="enable-background:new 0 0 100.2 100.2;" xml:space="preserve">
<style type="text/css">
	.st0{fill:none;}
	.st1{fill:#626262;}
	.st2{fill:#FFFFFF;}
	.st3{fill:#6D6D6D;}
</style>
<circle class="st0" cx="50.1" cy="50.1" r="50"/>
<path class="st1" d="M64.3,42.4c0,8.8-6.5,15.9-14.6,15.9s-14.6-7.1-14.6-15.9s6.5-15.9,14.6-15.9S64.3,33.6,64.3,42.4z"/>
<path class="st2" d="M44.4,33.1c-0.2,0-0.3,0-0.4,0.1c0,0,0,0.6-0.1,1.3c-0.1,3.5-0.1,3.4-0.8,4.2c-0.8,0.8-1.1,1.2-1.3,1.9
	c-0.1,0.3-0.1,0.5-0.1,4.1c0,2.1,0,4.4,0,5l0,1.2l0.4,0l0.4,0v-0.5c0-0.3,0-2.5,0-4.9l0-4.4l0.1-0.3c0.1-0.4,0.4-0.8,1-1.4
	c0.9-0.9,1-1.2,1.1-3.9c0-0.7,0.1-1.5,0.1-1.8C44.9,33.1,44.9,33.1,44.4,33.1L44.4,33.1z M47,33.2l0,1.1c0,0.6,0.1,1.6,0.1,2.3
	c0.1,1.8,0.2,2.1,1,2.9c0.9,1,1.1,1.3,1.1,2.5c0,3,0,7.4-0.1,7.6c-0.1,0.2-0.2,0.4-0.4,0.5c-0.1,0-0.5,0.1-0.9,0.1
	c-1,0.2-1.1,0.2-1.1,0.5c0,0.4-0.1,0.4,3,0.4l2.8,0l0.1-0.1c0.1-0.1,0.1-0.2,0.1-0.2c0-0.1-0.2-0.4-0.3-0.4c0,0-0.5-0.1-1-0.1
	c-0.9-0.1-0.9-0.1-1.1-0.3l-0.2-0.2l0-1.6c0-0.9,0-2.8,0-4.2c0-2.3,0-2.6,0.1-2.9c0.2-0.5,0.4-0.8,1-1.5c0.7-0.7,0.9-1.2,1-2.6
	c0.1-0.8,0.1-2.9,0.1-3.4v-0.3L47,33.2L47,33.2z M55,33.2c-0.2,0-0.4,0-0.4,0c0,0.6,0.2,3.7,0.2,4.1c0.1,1.1,0.3,1.4,1.1,2.3
	c0.4,0.4,0.6,0.7,0.7,1c0.2,0.5,0.2,0.6,0.2,4.8c0,2.2-0.1,4.3-0.1,4.8V51h0.9l0-1.7c0-1,0-1.9,0-2c0-0.1,0-1.5,0-3.1
	c0-3.1,0-3.2-0.2-3.9c-0.1-0.3-0.5-0.9-0.8-1.2c-0.1-0.1-0.3-0.4-0.5-0.5c-0.5-0.5-0.5-0.8-0.6-2.8c0-0.7-0.1-1.5-0.1-1.9l0-0.7
	L55,33.2L55,33.2z"/>
<g>
	<path class="st3" d="M4.6,67.1l-0.4-0.2l0.3-0.3c1-1,0.9-2.3-0.2-2.8c-0.5-0.2-0.7-0.3-2.5-0.3c-2,0-1.8,0-1.8,0.1
		c0,0.1,0.1,0.1,0.5,0.1c0.2,0,0.3,0.1,0.4,0.2l0.1,0.1v3.2c0,1.8,0,3.3,0,3.4C1,71,0.9,71.2,0.6,71.2c-0.1,0-0.2,0-0.3,0
		c-0.1,0-0.1,0.1,0,0.2l0,0c0,0,0.8,0,1.7,0c1.9,0,2.2,0,2.8-0.3c1.1-0.5,1.5-1.8,1-2.8C5.6,67.9,5.1,67.4,4.6,67.1z M2.4,65.3
		l0-1.4l0.3,0c0.4,0,0.7,0.1,0.9,0.4c0.5,0.6,0.6,1.6,0.1,2.1c-0.1,0.1-0.2,0.2-0.4,0.3l0,0c-0.3,0.1-0.7,0.1-0.9,0l-0.1,0L2.4,65.3
		z M4.1,70.7L4.1,70.7c-0.2,0.1-0.3,0.1-0.6,0.1c-0.4,0-0.4,0-0.7-0.1c-0.3-0.1-0.3-0.1-0.3-1.9l0-1.6l0.5,0c0.6,0,0.9,0.2,1.2,0.5
		c0.5,0.5,0.7,1.1,0.7,1.8C4.7,70.1,4.5,70.5,4.1,70.7z"/>
	<path class="st3" d="M14.9,71.2c-0.2,0-0.4-0.1-0.5-0.1c-0.3-0.1-0.7-0.5-1.1-0.9c-0.3-0.3-1.6-1.9-1.8-2.3c0,0,0.1-0.2,0.4-0.5
		c0.4-0.4,0.5-0.5,0.6-0.9c0.2-0.4,0.2-0.5,0.2-0.9c0-1-0.4-1.6-1.3-1.9c-0.3-0.1-0.4-0.1-2.4-0.1c-1.9,0-2,0-2,0.1
		c0,0.1,0.1,0.1,0.3,0.1c0.4,0,0.6,0.1,0.6,0.4c0.1,0.2,0.1,5.8,0,6.4C8,71,7.9,71.1,7.7,71.2c-0.3,0-0.5,0.1-0.5,0.1
		c0,0,0,0.1,0.1,0.1l0,0c0.1,0,3,0,3.1,0c0,0,0.1,0,0.1-0.1c0,0-0.1-0.1-0.3-0.1c-0.4,0-0.5-0.1-0.6-0.2c-0.1-0.1-0.2-0.6-0.2-1.8
		v-1.1l0.4,0c0.2,0,0.4,0,0.5,0c0.1,0,0.2,0,0.2,0.1c0,0,0.4,0.5,0.8,1.1c0.8,1.1,1.3,1.7,1.8,1.9c0.3,0.1,0.3,0.1,1.2,0.2
		c0.9,0,1.1,0,1-0.1C15.2,71.2,15,71.2,14.9,71.2z M10.8,67.5L10.8,67.5c-0.2,0.1-0.8,0.1-1.2,0l-0.2-0.1l0-1.7l0-1.7l0.2,0
		c0.7-0.1,1.4,0.2,1.7,0.8C11.8,65.8,11.5,67.2,10.8,67.5z"/>
	<path class="st3" d="M21.3,63.8c-0.7-0.4-1.2-0.4-2.2-0.4c-0.7,0-0.9,0-1.3,0.1c-0.8,0.2-1.5,0.7-2.1,1.3c-0.3,0.3-0.7,1.1-0.8,1.6
		c-0.4,1.4,0,2.9,1,4c0.5,0.5,1.4,1,2.3,1.1l0,0c0.5,0.1,1.5,0,2-0.1c1.2-0.3,2.1-1.1,2.7-2.1c0.3-0.6,0.5-1.6,0.4-2.3
		C23.1,65.4,22.4,64.3,21.3,63.8z M21.7,68.9c-0.3,1.1-0.9,1.7-1.8,1.9h0c-1,0.2-2.1-0.3-2.8-1.1c-0.6-0.8-0.8-1.6-0.8-2.8
		c0-0.6,0-0.8,0.1-1.2c0.3-1.3,1.1-2,2.4-2c0.8,0,1.4,0.2,2,0.8c0.4,0.4,0.7,0.9,0.9,1.6c0.1,0.3,0.1,0.5,0.1,1.3
		C21.8,68.4,21.7,68.6,21.7,68.9z"/>
	<path class="st3" d="M35.2,63.6c0-0.1-0.1-0.1-1.2-0.1c-1.1,0-1.1,0-1.2,0.1c0,0.1,0,0.1,0.1,0.1c0.1,0,0.2,0,0.3,0.1
		c0.2,0.1,0.2,0.1,0.2,0.3c0,0.2-0.2,0.9-0.7,2.6c-0.9,2.9-0.7,2.5-0.8,2.5c0-0.1-0.6-1.4-1.2-2.9l-0.4-1c-0.1-0.3-0.3-0.7-0.4-1.1
		c-0.1-0.3-0.3-0.6-0.3-0.7c-0.2-0.1-0.3,0.2-1.1,2.4c-0.6,1.8-1.3,3.3-1.3,3.3c-0.3-0.8-1.4-4.6-1.5-5.1c-0.1-0.2,0-0.3,0.1-0.4
		c0.1,0,0.2-0.1,0.3-0.1c0.2,0,0.3-0.1,0.2-0.2c0,0-0.7,0-1.4,0c-1.2,0-1.3,0-1.4,0.1c0,0.1,0,0.1,0.2,0.1c0.3,0,0.4,0.1,0.5,0.4
		c0,0.1,0.6,1.8,1.3,3.7c0.6,2,1.2,3.6,1.2,3.6l0,0c0,0.1,0.1,0.1,0.1,0.1c0.1,0,0.1-0.1,0.3-0.5c0.3-0.6,1-2.4,1.7-4.3
		c0.2-0.4,0.3-0.8,0.3-0.8c0,0,0.1,0.2,0.3,0.6c0.3,0.8,0.4,1,1.3,3.2c0.8,1.8,0.8,1.9,1,1.8c0,0,0.4-1,0.8-2.2
		c0.4-1.2,0.9-2.7,1.1-3.3c0.7-2.1,0.7-2.1,1.2-2.2C35.2,63.7,35.2,63.6,35.2,63.6z"/>
	<path class="st3" d="M41.2,63.3C41.1,63.3,41.1,63.4,41.2,63.3c-0.1,0.1,0,0.2,0.2,0.2c0.4,0,0.5,0.1,0.6,0.3
		c0.1,0.2,0.1,0.4,0.2,4.1l0,1.2l-0.5-0.5c-1.2-1.2-3.8-4-4.2-4.4c-0.2-0.2-0.6-0.6-0.8-0.8c-0.4-0.5-0.5-0.5-0.6,0
		c0,0.2,0,1.6-0.1,3.2c0,3.1-0.1,3.9-0.2,4c-0.1,0.1-0.2,0.2-0.5,0.2c-0.2,0-0.3,0-0.3,0.1c0,0.1,0.2,0.1,1.4,0.1
		c1.3,0,1.4,0,1.4-0.1c0-0.1-0.1-0.1-0.3-0.1c-0.4,0-0.5-0.1-0.6-0.4c-0.1-0.2-0.1-0.6-0.2-4l0-1.1l0.3,0.3c0.2,0.2,0.5,0.5,0.7,0.7
		c0.4,0.4,4.1,4.2,4.6,4.6l0,0c0.3,0.3,0.4,0.3,0.5,0.2c0-0.1,0.1-1.6,0.1-3.5c0-1.9,0.1-3.5,0.1-3.7c0-0.4,0.2-0.5,0.5-0.5
		c0.2,0,0.4-0.1,0.4-0.1c0,0,0-0.1,0-0.1C43.7,63.3,41.2,63.3,41.2,63.3z"/>
	<path class="st3" d="M48.4,66.7c-0.1,0.2-0.4,0.2-1.4,0.1l-1,0L45.7,67c-0.1,0.1-0.2,0.3-0.3,0.4c-0.1,0.2-0.1,0.2,0,0.3v0
		c0.1,0,0.1,0,0.2-0.1c0.1-0.1,0.2-0.1,1.3-0.1h1.2l0.1-0.2c0.1-0.1,0.2-0.3,0.2-0.4c0.1-0.2,0.1-0.3,0-0.3
		C48.4,66.6,48.4,66.6,48.4,66.7z"/>
	<path class="st3" d="M54.6,63.5c-0.2,0-0.9,0.1-2.5,0c-2.6,0-2.4,0-2.4,0.1c0,0.1,0.1,0.1,0.4,0.1c0.1,0,0.3,0,0.3,0
		c0.3,0.1,0.3,0.2,0.3,0.9c0,0.9,0,5.6-0.1,6c-0.1,0.3-0.2,0.5-0.5,0.5c-0.1,0-0.2,0-0.2,0c-0.1,0-0.1,0.2,0,0.2l0,0
		c0.1,0,2.9,0,3.1,0c0.1,0,0.1-0.1,0-0.2c0,0-0.2,0-0.3,0c-0.1,0-0.3,0-0.4-0.1c-0.3-0.1-0.3-0.3-0.3-2.1l0-1.5l0.8,0
		c0.5,0,0.9,0,1,0.1c0.2,0.1,0.4,0.3,0.4,0.5c0,0.2,0.1,0.3,0.2,0.2c0,0,0.1-0.3,0.1-0.6c0-0.3,0.1-0.6,0.1-0.8c0-0.3,0-0.4-0.2-0.2
		c-0.2,0.2-0.4,0.2-1.4,0.2l-0.9,0l0-1.4l0-1.4l0.9,0c0.8,0,0.9,0,1.1,0.1c0.2,0.1,0.2,0.1,0.3,0.6c0,0.1,0,0.2,0.1,0.2
		c0.1,0,0.1-0.1,0.1-0.5c0-0.2,0.1-0.6,0.1-0.7c0-0.2,0-0.3,0-0.3C54.8,63.5,54.7,63.5,54.6,63.5z"/>
	<path class="st3" d="M62.5,63.8c-0.7-0.4-1.2-0.4-2.2-0.4c-0.7,0-0.9,0-1.3,0.1c-0.8,0.2-1.5,0.7-2.1,1.3c-0.3,0.3-0.7,1.1-0.8,1.6
		c-0.4,1.4,0,2.9,1,4c0.5,0.5,1.4,1,2.3,1.1l0,0c0.5,0.1,1.5,0,2-0.1c1.2-0.3,2.1-1.1,2.7-2.1c0.3-0.6,0.5-1.6,0.4-2.3
		C64.4,65.4,63.7,64.3,62.5,63.8z M62.9,68.9c-0.3,1.1-0.9,1.7-1.8,1.9h0c-1,0.2-2.1-0.3-2.8-1.1c-0.6-0.8-0.8-1.6-0.8-2.8
		c0-0.6,0-0.8,0.1-1.2c0.3-1.3,1.1-2,2.4-2c0.8,0,1.4,0.2,2,0.8c0.4,0.4,0.7,0.9,0.9,1.6c0.1,0.3,0.1,0.5,0.1,1.3
		C63,68.4,63,68.6,62.9,68.9z"/>
	<path class="st3" d="M73.2,71.2c0,0-0.1,0-0.1,0c-0.2,0-0.4-0.1-0.5-0.1c-0.3-0.1-0.7-0.5-1.1-0.9c-0.3-0.3-1.6-1.9-1.8-2.3
		c0,0,0.1-0.2,0.4-0.5c0.4-0.4,0.5-0.5,0.6-0.9C71,66.1,71,66,71,65.6c0-1-0.4-1.6-1.3-1.9c-0.3-0.1-0.4-0.1-2.4-0.1
		c-1.9,0-2,0-2,0.1c0,0.1,0.1,0.1,0.3,0.1c0.4,0,0.6,0.1,0.6,0.4c0.1,0.2,0.1,5.8,0,6.4c-0.1,0.5-0.2,0.7-0.4,0.7
		c-0.3,0-0.5,0.1-0.5,0.1c0,0,0,0.1,0.1,0.1l0,0c0.1,0,3,0,3.1,0c0,0,0.1,0,0.1-0.1c0,0-0.1-0.1-0.3-0.1c-0.4,0-0.5-0.1-0.6-0.2
		c-0.1-0.1-0.2-0.6-0.2-1.8v-1.1l0.4,0c0.2,0,0.4,0,0.5,0c0.1,0,0.2,0,0.2,0.1c0,0,0.4,0.5,0.8,1.1c0.8,1.1,1.3,1.7,1.8,1.9
		c0.3,0.1,0.3,0.1,1.2,0.2c0.6,0,0.9,0,1-0.1c0,0-0.1,0-0.1,0C73.3,71.4,73.3,71.3,73.2,71.2z M69,67.6L69,67.6
		c-0.2,0.1-0.8,0.1-1.2,0l-0.2-0.1l0-1.7l0-1.7l0.2,0c0.7-0.1,1.4,0.2,1.7,0.8C70,65.8,69.7,67.2,69,67.6z"/>
	<path class="st3" d="M83.2,71.3l-0.9-0.5c-0.1-0.3-0.2-0.5-0.6-3.7c-0.3-1.8-0.5-3.3-0.5-3.5c-0.1-0.3-0.1-0.4-0.3-0.4
		c-0.1,0-0.3,0.5-1.7,3.4c-0.4,0.9-0.9,1.9-1,2.2l-0.3,0.6l-0.3-0.6c-2-4.2-2.6-5.4-2.7-5.5c-0.1-0.1-0.2-0.1-0.3,0
		c0,0.1-0.3,1.7-0.6,3.6c-0.3,1.9-0.6,3.6-0.6,3.7c0,0.1-0.1,0.3-0.2,0.3c0,0-0.1,0.1,0,0.2c0.1,0,0.2,0.1,0.2,0.1c0,0,0,0.1,0,0.1
		c0.9,0,1.6,0,1.7,0c0.2,0,0.1-0.2-0.2-0.2c-0.2,0-0.4-0.1-0.4-0.1c-0.2-0.1-0.2-0.2-0.1-1.1c0-0.2,0.1-1.1,0.3-2
		c0.1-0.9,0.2-1.7,0.2-1.7s0.2,0.5,0.5,1.1c0.5,1,1.7,3.5,1.9,3.9c0.1,0.2,0.2,0.2,0.3,0.2c0,0,0.9-1.7,1.7-3.5
		c0.2-0.4,0.5-1,0.6-1.3l0.3-0.6l0.3,2.4c0.2,1.3,0.3,2.5,0.3,2.5s-0.1,0.1-0.1,0.1c0,0-0.1,0.1-0.1,0.1c0,0.1,0.4,0.1,2.6,0.1
		L83.2,71.3C83.2,71.4,83.2,71.4,83.2,71.3L83.2,71.3z"/>
	<path class="st3" d="M73.5,71.3c0,0-0.1,0-0.2-0.1c0,0.1,0,0.1,0.1,0.1C73.4,71.4,73.4,71.4,73.5,71.3
		C73.5,71.4,73.5,71.3,73.5,71.3z"/>
	<path class="st3" d="M89.8,70.2c-0.1-0.3-0.8-1.9-1.5-3.6S87,63.5,87,63.4l-0.1-0.1l-0.1,0.1c-0.1,0.1-0.8,1.9-2.3,5.5
		c-0.7,1.9-0.8,2-1.1,2.2l-0.2,0.3l0.1,0c1.9,0,2.1,0,2.1-0.1c0-0.1,0-0.1-0.2-0.1c-0.7,0-0.7-0.2-0.1-1.7l0.3-0.8l1.2,0l1.2,0
		l0.4,1.1c0.2,0.6,0.4,1.2,0.4,1.2c0,0.1-0.1,0.1-0.1,0.1c-0.1,0-0.1,0-0.1,0.1c0,0,0,0.1,0.1,0.1c0.1,0,1.3,0,2.8,0l0-0.2
		C90.4,71.2,90.2,71.1,89.8,70.2z M86.6,68.2c-0.5,0-1,0-1,0c0,0,0.9-2.5,1-2.6c0-0.1,0-0.1,0.4,0.8c0.1,0.3,0.3,0.8,0.4,1.1
		c0.1,0.3,0.2,0.6,0.2,0.6l0,0C87.5,68.2,87.4,68.2,86.6,68.2z"/>
	<path class="st3" d="M83.2,71.4C83.2,71.4,83.2,71.4,83.2,71.4L83.2,71.4L83.2,71.4z"/>
	<path class="st3" d="M97.4,63.4C97.4,63.4,97.3,63.4,97.4,63.4c-0.1,0.1,0,0.2,0.2,0.2c0.4,0,0.5,0.1,0.6,0.3
		c0.1,0.2,0.1,0.4,0.2,4.1l0,1.2L98,68.7c-1.2-1.2-3.8-4-4.2-4.4c-0.2-0.2-0.6-0.6-0.8-0.8c-0.4-0.5-0.5-0.5-0.6,0
		c0,0.2,0,1.6-0.1,3.2c0,3.1-0.1,3.9-0.2,4C92.1,70.9,92,71,91.7,71c-0.2,0-0.3,0-0.3,0.1c0,0.1,0.2,0.1,1.4,0.1
		c1.3,0,1.4,0,1.4-0.1c0-0.1-0.1-0.1-0.3-0.1c-0.4,0-0.5-0.1-0.6-0.4c-0.1-0.2-0.1-0.6-0.2-4l0-1.1l0.3,0.3c0.2,0.2,0.5,0.5,0.7,0.7
		c0.4,0.4,4.1,4.2,4.6,4.6l0,0c0.3,0.3,0.4,0.3,0.5,0.2c0-0.1,0.1-1.6,0.1-3.5c0-1.9,0.1-3.5,0.1-3.7c0-0.4,0.2-0.5,0.5-0.5
		c0.2,0,0.4-0.1,0.4-0.1c0,0,0-0.1,0-0.1C100,63.4,97.5,63.3,97.4,63.4z"/>
</g>
</svg>
