<?xml version="1.0" encoding="utf-8"?>
<!-- Generator: Adobe Illustrator 22.0.1, SVG Export Plug-In . SVG Version: 6.00 Build 0)  -->
<svg version="1.1" id="Layer_1" xmlns="http://www.w3.org/2000/svg" xmlns:xlink="http://www.w3.org/1999/xlink" x="0px" y="0px"
	 viewBox="0 0 100.2 100.2" style="enable-background:new 0 0 100.2 100.2;" xml:space="preserve">
<style type="text/css">
	.st0{fill:none;}
	.st1{fill:#6D6D6D;}
	.st2{fill:#C8C8C8;}
	.st3{fill:#A6A6A6;}
	.st4{fill:#FFFFFF;}
	.st5{fill:#626262;}
</style>
<g>
	<circle class="st0" cx="50.1" cy="50.1" r="50"/>
	<g>
		<g>
			<path class="st1" d="M67.5,55.7c0-0.2-0.1-0.3-0.3-0.4l-11.5-6.4c-0.3-0.2-0.6-0.1-0.8,0.2L52,53.6c-0.2,0.3-0.1,0.6,0.2,0.8
				l1.6,1c-0.8,2-2.1,3.7-3.7,5.3c-1.6-1.6-3-3.3-3.7-5.3l1.6-1c0.3-0.2,0.4-0.5,0.2-0.8l-2.9-4.5c-0.2-0.3-0.5-0.4-0.8-0.2L33,55.4
				c-0.1,0.1-0.2,0.2-0.3,0.4c0,0.1-0.5,1.9,1.1,4.3c1.6,2.4,4.8,3.2,5,3.2c0,0,0.1,0,0.1,0c0.2,0,0.4-0.1,0.6-0.3
				c0,0,1.1-2.2,2.9-4.3c1.1,2.2,2.6,3.8,4.2,5.3c-2.6,2.3-5.5,4.9-8.1,8.3c0,0,0,0,0,0.1c0,0.1-0.8,1.4,1.2,3
				c1,0.8,2.2,0.9,2.8,0.9c0.2,0,0.4,0,0.4,0c0.3,0,0.6-0.3,0.5-0.6c0-0.3,0-0.9,0.2-1.1c2.4-3.3,4.6-5.5,6.6-7.4
				c2,1.8,4.3,4,6.6,7.3c0.2,0.2,0.2,0.8,0.2,1.1c0,0.3,0.2,0.6,0.5,0.6c0,0,0.2,0,0.4,0c0.6,0,1.8-0.1,2.8-0.9
				c1.9-1.6,1.2-2.9,1.2-3c0,0,0,0,0-0.1c-2.5-3.4-5.5-6-8.1-8.3c1.7-1.5,3.1-3.1,4.2-5.3c1.8,2.1,2.8,4.2,2.9,4.3
				c0.1,0.2,0.3,0.3,0.6,0.3c0,0,0.1,0,0.1,0c0.1,0,3.4-0.8,5-3.2C68,57.6,67.5,55.8,67.5,55.7z M55.6,50.2l8.9,5
				c0,0.3-0.3,2.1-1.6,3.5c-0.9,1-1.8,1.4-2.3,1.6c-1.1-1.6-2.8-3.8-4.9-5.1l-2.3-1.4L55.6,50.2z M44.6,50.2l2.2,3.5l-2.3,1.4
				c-2.2,1.3-3.9,3.5-4.9,5.1c-0.5-0.2-1.4-0.6-2.3-1.6c-1.3-1.4-1.5-3.1-1.6-3.5L44.6,50.2z M38.5,62c-0.9-0.3-2.8-1-3.7-2.6
				c-1-1.5-1-2.7-1-3.2l1.2-0.7c0.1,0.7,0.5,2.3,1.7,3.6c0.9,1,1.8,1.5,2.4,1.7C38.9,61.3,38.7,61.7,38.5,62z M43.3,58
				c0.1-0.2,0.4-0.5,0.9-0.9c0.5-0.4,0.9-0.6,1.2-0.8c0.9,2,2.2,3.6,3.8,5.2c-0.6,0.5-1.2,1.1-1.8,1.7C45.7,61.7,44.4,60.2,43.3,58z
				 M52.8,64.9c2.5,2.2,5.4,4.8,7.9,8.1c0,0.1,0.1,0.6-0.9,1.4c-0.6,0.5-1.3,0.6-1.7,0.6c0-0.4-0.1-0.9-0.4-1.2
				c-2.4-3.4-4.7-5.6-6.7-7.5c0.2-0.2,0.5-0.4,0.7-0.6C52.1,65.4,52.4,65.1,52.8,64.9C52.8,64.9,52.8,64.9,52.8,64.9z M50.9,64.8
				c-2.5,2.2-5.4,4.6-8.5,9c-0.3,0.4-0.3,0.8-0.4,1.2c-0.5,0-1.2-0.2-1.7-0.6c-1-0.8-0.9-1.3-0.9-1.5c2.5-3.3,5.3-5.8,7.9-8.1
				c3.2-2.8,6-5.3,7.4-8.6c0.3,0.2,0.7,0.5,1.2,0.8c0.5,0.4,0.8,0.7,0.9,0.9C55.4,61,53.4,62.7,50.9,64.8z M65.4,59.4
				c-1,1.5-2.9,2.3-3.7,2.6c-0.1-0.3-0.4-0.7-0.6-1.1c0.6-0.2,1.5-0.7,2.4-1.7c1.2-1.3,1.6-2.9,1.7-3.6l1.2,0.7
				C66.4,56.7,66.3,57.9,65.4,59.4z"/>
			<ellipse class="st1" cx="41.2" cy="73.2" rx="0.4" ry="0.4"/>
			<path class="st1" d="M59.3,73.5c0.1-0.1,0.1-0.4,0-0.5c-0.1-0.1-0.4-0.1-0.5,0c-0.1,0.1-0.1,0.4,0,0.5
				C58.9,73.6,59.1,73.6,59.3,73.5z"/>
			<polygon class="st1" points="8.1,46.1 10.1,46.1 10.1,40.1 13.6,40.1 13.6,38.2 10.1,38.2 10.1,34 14.1,34 14.1,32.1 8.1,32.1 
							"/>
			<polygon class="st1" points="18.3,32.1 16.3,32.1 16.3,46.1 22.3,46.1 22.3,44.1 18.3,44.1 			"/>
			<polygon class="st1" points="25.6,37.7 25.6,37.7 24,32.1 21.9,32.1 24.6,40.2 24.6,46.1 26.6,46.1 26.6,40.2 29.4,32.1 
				27.2,32.1 			"/>
			<rect x="31.4" y="32.1" class="st1" width="2" height="13.9"/>
			<polygon class="st1" points="38.2,37.7 38.3,37.7 41.3,46.1 43.2,46.1 43.2,32.1 41.2,32.1 41.2,40.5 41.2,40.5 38.1,32.1 
				36.2,32.1 36.2,46.1 38.2,46.1 			"/>
			<path class="st1" d="M46.9,45.3c0.3,0.3,0.7,0.5,1.1,0.6c0.4,0.1,0.8,0.2,1.2,0.2c0.4,0,0.8-0.1,1.2-0.2c0.4-0.1,0.8-0.4,1.1-0.6
				c0.3-0.3,0.6-0.6,0.8-1.1c0.2-0.4,0.3-0.9,0.3-1.5v-4.4H49v1.8h1.6v2.6c0,0.5-0.1,0.8-0.4,1.1c-0.3,0.2-0.6,0.3-0.9,0.3
				c-0.4,0-0.7-0.1-0.9-0.3c-0.3-0.2-0.4-0.6-0.4-1.1v-7.4c0-0.5,0.1-0.8,0.4-1.1c0.3-0.2,0.6-0.3,0.9-0.3c0.4,0,0.7,0.1,0.9,0.3
				c0.3,0.2,0.4,0.6,0.4,1.1v0.7h2v-0.7c0-0.6-0.1-1.1-0.3-1.5c-0.2-0.4-0.5-0.8-0.8-1.1c-0.3-0.3-0.7-0.5-1.1-0.6
				C50,32.1,49.6,32,49.2,32c-0.4,0-0.8,0.1-1.2,0.2c-0.4,0.1-0.8,0.4-1.1,0.6c-0.3,0.3-0.6,0.6-0.8,1.1c-0.2,0.4-0.3,0.9-0.3,1.5
				v7.4c0,0.6,0.1,1.1,0.3,1.5C46.3,44.7,46.6,45,46.9,45.3z"/>
			<path class="st1" d="M61.6,43.1h2.7l0.6,3h2l-3.1-13.9h-1.7L59,46.1h2L61.6,43.1z M62.9,36.1L62.9,36.1l1,5h-2L62.9,36.1z"/>
			<polygon class="st1" points="75.6,46.1 72.7,38.8 75.4,32.1 73.2,32.1 71.7,36.3 70.2,32.1 68.1,32.1 70.7,38.8 67.9,46.1 
				70,46.1 71.7,41.4 73.5,46.1 			"/>
			<polygon class="st1" points="77.4,46.1 83.4,46.1 83.4,44.1 79.4,44.1 79.4,40 82.9,40 82.9,38.1 79.4,38.1 79.4,34 83.4,34 
				83.4,32.1 77.4,32.1 			"/>
			<path class="st1" d="M92.1,36.1v-1c0-0.4-0.1-0.8-0.2-1.1c-0.2-0.4-0.4-0.7-0.7-1c-0.3-0.3-0.6-0.5-1.1-0.7
				c-0.4-0.2-0.9-0.3-1.4-0.3c-0.6,0-1.1,0.1-1.5,0.3c-0.4,0.2-0.8,0.5-1.1,0.8c-0.3,0.3-0.5,0.7-0.6,1.2c-0.1,0.5-0.2,1-0.2,1.5
				c0,0.9,0.1,1.6,0.4,2.2c0.3,0.6,0.9,1,1.7,1.4L89,40c0.2,0.1,0.4,0.2,0.6,0.3c0.1,0.1,0.3,0.2,0.4,0.4c0.1,0.1,0.1,0.3,0.2,0.6
				c0,0.2,0,0.5,0,0.9c0,0.3,0,0.6,0,0.9c0,0.3-0.1,0.5-0.2,0.7c-0.1,0.2-0.2,0.3-0.4,0.4c-0.2,0.1-0.5,0.1-0.8,0.1
				c-0.5,0-0.9-0.1-1.1-0.4c-0.2-0.3-0.3-0.6-0.3-1v-0.6h-2v0.7c0,0.5,0.1,0.9,0.3,1.3c0.2,0.4,0.4,0.8,0.7,1
				c0.3,0.3,0.7,0.5,1.1,0.7c0.4,0.2,0.9,0.3,1.4,0.3c0.6,0,1.2-0.1,1.6-0.3c0.4-0.2,0.8-0.5,1.1-0.9c0.3-0.4,0.5-0.8,0.6-1.3
				c0.1-0.5,0.2-1,0.2-1.6c0-0.5,0-1-0.1-1.4c-0.1-0.4-0.2-0.8-0.3-1.1c-0.1-0.3-0.4-0.6-0.6-0.8c-0.3-0.2-0.6-0.4-1.1-0.6l-1.5-0.6
				c-0.3-0.1-0.5-0.2-0.6-0.3c-0.2-0.1-0.3-0.2-0.3-0.4c-0.1-0.1-0.1-0.3-0.1-0.5c0-0.2,0-0.4,0-0.7c0-0.2,0-0.5,0.1-0.7
				c0-0.2,0.1-0.4,0.2-0.6c0.1-0.2,0.2-0.3,0.4-0.4c0.2-0.1,0.4-0.2,0.7-0.2c0.5,0,0.9,0.2,1.1,0.5c0.2,0.3,0.3,0.7,0.3,1.2v0.5
				H92.1z"/>
		</g>
		<path class="st3" d="M39.7,65.8c0.6,0.9,1.4,1.7,2.2,2.5c0.2-0.2,0.5-0.5,0.7-0.7c-1.5-1.2-2.6-2.7-3.3-4.4
			c-0.1,0.1-0.3,0.2-0.4,0.2c0,0-0.1,0-0.1,0c0,0-0.2,0-0.5-0.1c0.3,0.7,0.6,1.3,1,1.9l-6.2,0c-0.2,0-0.4,0.2-0.4,0.4
			c0,0.2,0.2,0.4,0.4,0.4L39.7,65.8C39.6,65.8,39.7,65.8,39.7,65.8z"/>
		<path class="st3" d="M37.7,52.7L39,52c0.3-0.8,0.6-1.2,0.6-1.2c0.1-0.1,0.1-0.3,0-0.5c-0.1-0.2-0.3-0.3-0.4-0.3h0l-28.3,0
			c-0.3,0-0.5,0.2-0.5,0.5c0,0.3,0.2,0.5,0.5,0.5h0l27.5,0C38.2,51.4,37.9,52,37.7,52.7z"/>
		<path class="st3" d="M35.3,54l-22.5,0c-0.2,0-0.4,0.2-0.4,0.4c0,0.2,0.2,0.4,0.4,0.4l21.2,0L35.3,54z"/>
		<path class="st3" d="M32.8,57.7l-17,0c-0.2,0-0.4,0.2-0.4,0.4s0.2,0.4,0.4,0.4l17.2,0C32.9,58.2,32.8,57.9,32.8,57.7z"/>
		<path class="st3" d="M34.9,61.4l-14.8,0c-0.2,0-0.4,0.2-0.4,0.4c0,0.2,0.2,0.4,0.4,0.4l15.8,0C35.6,61.9,35.3,61.7,34.9,61.4z"/>
		<path class="st3" d="M89.3,50.1l-28.3,0h0c-0.2,0-0.3,0.1-0.4,0.3c-0.1,0.2-0.1,0.3,0,0.5c0,0,0.3,0.4,0.6,1.2l1.3,0.7
			C62.2,52,62,51.4,61.8,51l27.5,0h0c0.3,0,0.5-0.2,0.5-0.5C89.7,50.3,89.5,50.1,89.3,50.1z"/>
		<path class="st3" d="M87.3,54l-22.5,0l1.3,0.7l21.2,0c0.2,0,0.4-0.2,0.4-0.4C87.6,54.2,87.5,54,87.3,54z"/>
		<path class="st3" d="M84.4,57.7l-17,0c-0.1,0.2-0.1,0.5-0.2,0.7l17.2,0c0.2,0,0.4-0.2,0.4-0.4S84.6,57.7,84.4,57.7z"/>
		<path class="st3" d="M80,61.4l-14.8,0c-0.3,0.3-0.7,0.5-1,0.7l15.8,0c0.2,0,0.4-0.2,0.4-0.4C80.4,61.5,80.2,61.4,80,61.4z"/>
		<path class="st3" d="M67.1,65.1l-6.2,0c0.4-0.6,0.7-1.2,1-1.9c-0.3,0.1-0.4,0.1-0.5,0.1c0,0-0.1,0-0.1,0c-0.2,0-0.3-0.1-0.4-0.2
			c-0.8,1.7-1.9,3.2-3.3,4.4c0.2,0.2,0.5,0.5,0.7,0.7c0.9-0.7,1.6-1.6,2.2-2.5c0,0,0.1,0,0.1,0l6.5,0c0.2,0,0.4-0.2,0.4-0.4
			C67.4,65.2,67.3,65.1,67.1,65.1z"/>
	</g>
</g>
</svg>
